<?xml version="1.0" encoding="utf-8"?>
<!-- Generator: Adobe Illustrator 22.1.0, SVG Export Plug-In . SVG Version: 6.00 Build 0)  -->
<svg version="1.1" id="hero" xmlns="http://www.w3.org/2000/svg" xmlns:xlink="http://www.w3.org/1999/xlink" x="0px" y="0px"
	 viewBox="0 0 566.9 566.9" style="enable-background:new 0 0 566.9 566.9;" xml:space="preserve">
<style type="text/css">
	.st0{fill:url(#SVGID_1_)}.st1{opacity:0.7;fill:url(#SVGID_2_);enable-background:new}.st2{fill:url(#SVGID_3_)}.st3{fill:url(#SVGID_4_)}.st4{fill:#FF7936}.st5{fill:url(#SVGID_5_)}.st6{fill:#C2D2DC}.st7{fill:none;stroke:#A4B6C5;stroke-width:3.0001;stroke-linecap:round;stroke-miterlimit:10}.st8{fill:url(#SVGID_6_)}.st9{fill:url(#SVGID_7_)}.st10{fill:url(#SVGID_8_)}.st11{fill:url(#SVGID_9_)}.st12{fill:url(#SVGID_10_)}.st13{fill:url(#SVGID_11_)}.st14{fill:#A4B6C5}.st15{fill:url(#SVGID_12_)}.st16{fill:url(#SVGID_13_)}.st17{fill:url(#SVGID_14_)}.st18{fill:url(#SVGID_15_)}.st19{fill:url(#SVGID_16_)}.st20{fill:url(#SVGID_17_)}.st21{fill:url(#SVGID_18_)}.st22{fill:#FFFFFF}.st23{fill:#DBE7EE}.st24{fill:url(#SVGID_19_)}.st25{fill:url(#SVGID_20_)}.st26{fill:url(#SVGID_21_)}.st27{fill:url(#SVGID_22_)}.st28{fill:url(#SVGID_23_)}.st29{fill:url(#SVGID_24_)}.st30{fill:url(#SVGID_25_)}.st31{fill:url(#SVGID_26_)}.st32{fill:url(#SVGID_27_)}.st33{fill:#758C9D}.st34{fill:none;stroke:url(#SVGID_28_);stroke-width:2;stroke-miterlimit:10}.st35{fill:url(#SVGID_29_)}.st36{fill:url(#SVGID_30_)}.st37{fill:#EDE1D1}.st38{fill:url(#SVGID_31_)}.st39{fill:url(#SVGID_32_)}.st40{fill:url(#SVGID_33_)}.st41{fill:url(#SVGID_34_)}.st42{fill:#FAD05B}.st43{fill:url(#SVGID_35_)}.st44{fill:url(#SVGID_36_)}.st45{fill:url(#SVGID_37_)}.st46{fill:url(#SVGID_38_)}.st47{fill:#EA9A26}.st48{fill:url(#SVGID_39_)}.st49{fill:url(#SVGID_40_)}.st50{fill:url(#SVGID_41_)}.st51{fill:#EAA74E}.st52{fill:#FAB03C}.st53{fill:url(#SVGID_42_)}.st54{fill:url(#SVGID_43_)}.st55{fill:url(#SVGID_44_)}.st56{fill:url(#SVGID_45_)}.st57{fill:#F8FAFB}.st58{fill:#57B7FF}.st59{fill:#95D2FF}.st60{fill:#4898D3}.st61{fill:url(#SVGID_46_)}.st62{opacity:0.4;fill:#EFF4F6;enable-background:new    }.st63{opacity:0.2;fill:#EFF4F6;enable-background:new    }.st64{fill:url(#SVGID_47_)}.st65{fill:url(#SVGID_48_)}.st66{fill:url(#SVGID_49_)}.st67{fill:url(#SVGID_50_)}.st68{fill:url(#SVGID_51_)}.st69{fill:url(#SVGID_52_)}.st70{fill:url(#SVGID_53_)}.st71{fill:url(#SVGID_54_)}.st72{fill:url(#SVGID_55_)}.st73{fill:url(#SVGID_56_)}.st74{fill:url(#SVGID_57_)}.st75{fill:url(#SVGID_58_)}.st76{fill:url(#SVGID_59_)}.st77{fill:url(#SVGID_60_)}.st78{fill:url(#SVGID_61_)}.st79{fill:url(#SVGID_62_)}.st80{fill:url(#SVGID_63_)}.st81{fill:url(#SVGID_64_)}.st82{fill:#E56789}.st83{fill:#CE5278}.st84{fill:#DCE8EF}.st85{fill:url(#SVGID_65_)}.st86{fill:url(#SVGID_66_)}.st87{fill:url(#SVGID_67_)}.st88{fill:url(#SVGID_68_)}.st89{fill:url(#SVGID_69_)}.st90{fill:url(#SVGID_70_)}.st91{fill:none;stroke:url(#SVGID_71_);stroke-width:1.1054;stroke-linecap:round;stroke-miterlimit:10}.st92{fill:none;stroke:url(#SVGID_72_);stroke-width:1.1054;stroke-linecap:round;stroke-miterlimit:10}.st93{fill:none;stroke:url(#SVGID_73_);stroke-width:1.1054;stroke-linecap:round;stroke-miterlimit:10}.st94{fill:url(#SVGID_74_)}.st95{fill:#F9DFBB}.st96{fill:#E9E5D9}g#svg_bag{animation:floating 4.8s ease-in-out 0s infinite alternate}g#svg_book{animation:floating 4.7s ease-in-out 0.8s infinite alternate}g#svg_clock{animation:floating 4.6s ease-in-out 0.35s infinite alternate}g#svg_pencil{animation:floating 4.5s ease-in-out 0.7s infinite alternate}g#svg_cap{animation:floating 4.4s ease-in-out 0.1s infinite alternate}g#svg_apple{animation:floating 4.3s ease-in-out 0.6s infinite alternate}g#svg_eraser{animation:floating 4.2s ease-in-out 0.9s infinite alternate}g#svg_magnifier{animation:floating 4.1s ease-in-out 0.1s infinite alternate}g#svg_brush{animation:floating 4s ease-in-out 0.9s infinite alternate}g#svg_color{animation:floating 4.9s ease-in-out 0.6s infinite alternate}g#svg_book{animation:floating 4.8s ease-in-out 0.1s infinite alternate}g#svg_red_pin{animation:floating 4.7s ease-in-out 1.2s infinite alternate}g#svg_blue_pin{animation:floating 4s ease-in-out 0s infinite alternate}g#svg_orange_pin{animation:floating 4.6s ease-in-out 0.8s infinite alternate}g#svg_red_clip{animation:floating 5s ease-in-out 0s infinite alternate}g#svg_blue_clip{animation:floating 6s ease-in-out 0.5s infinite alternate}g#svg_orange_clip{animation:floating 5s ease-in-out 0.3s infinite alternate}g#svg_notepad{animation:floating 4s ease-in-out 0.9s infinite alternate}
	@keyframes floating{0%{transform:translate(0px,0px)}50%{transform:translate(0px,15px)}100%{transform:translate(0px,0px)}}
</style>
	<g id="svg_background">
		<g>
			<g>
				<g>
						<linearGradient id="SVGID_1_" gradientUnits="userSpaceOnUse" x1="0.3364" y1="343.4478" x2="567.2813" y2="343.4478" gradientTransform="matrix(1 0 0 1 0 -66)">
						<stop offset="0" style="stop-color:#8EE5B6"/>
						<stop offset="1" style="stop-color:#00C4D8"/>
					</linearGradient>
					<path class="st0" d="M567.3,0.1v554.7c-39.4-9.3-76.9-34.4-95.3-73.1c-11.5-24.3-16.3-54.4-36.6-71c-16.9-13.8-40.7-14-61.1-7.6
						s-38.9,18.4-58.5,27.5c-30.5,14.1-65,20.8-97.3,12.3s-61.6-34.3-70.3-68.9c-9.4-37.5,4.1-83.1-19.4-112.4
						c-26.4-32.8-80.2-20-109.3-49.8C0.8,192.9-2,161.7,1.8,134.2c3.8-27.5,13-54,13.9-81.8C16.3,34.2,12,14.5,2.4,0.1L567.3,0.1
						L567.3,0.1z"/>

						<linearGradient id="SVGID_2_" gradientUnits="userSpaceOnUse" x1="313.6361" y1="310.1096" x2="159.1593" y2="486.1918" gradientTransform="matrix(1 0 0 1 0 -66)">
						<stop offset="0" style="stop-color:#A7EBEB"/>
						<stop offset="1" style="stop-color:#A7EBEB;stop-opacity:0"/>
					</linearGradient>
					<path class="st1" d="M554.4,498.5c-35-2.2-71.5-25-79.8-61.8c-7.4-32.7,7.6-71.5-10.9-98.5c-14.2-20.8-43.5-23.8-65.7-13.8
						c-22.2,10-39.1,29.8-55.3,49c-16.1,19.2-33.2,39-55.5,48.6c-23.1,10-50.5,7.6-71.8-6.3c-21.3-14-35.9-39.1-38.3-65.7
						c-2.4-25.8,6.1-51.2,8.6-77c2.6-25.8-3.1-56.1-24.3-68.4c-18.2-10.6-40.3-4-60.3,0.8c-20.1,4.9-44.4,6.5-58.1-10.1
						c-15.7-19-7.4-48.9,3.5-71.4C65.6,84,91,43.5,92.4,0H2c9.6,14.4,13.9,34.1,13.3,52.3C14.5,80,5.3,106.7,1.5,134.1
						s-1,58.6,17.6,77.7c29.2,29.9,83,17,109.3,49.8c23.5,29.3,10,74.9,19.4,112.4c8.7,34.6,38,60.4,70.3,68.9
						c32.3,8.6,66.7,1.9,97.3-12.3c19.6-9.1,38-21.1,58.5-27.5c20.4-6.4,44.2-6.3,61.1,7.6c20.2,16.5,25,46.5,36.6,71
						c18.4,38.6,55.8,63.9,95.3,73.1v-56.2C563,498.8,558.6,498.7,554.4,498.5z M419.5,367.1c-9.4,6-31.3,5.6-31.3-10.6
						c0-13.7,19.1-22.7,29.7-22.5C437.9,334.6,431.8,359.2,419.5,367.1z M456.9,362.4c-0.6,1.7-1.8,3.4-3.5,4.1
						c-1.8,0.7-3.8,0.2-5.6-0.7c-2.8-1.6-5-4.5-5.6-7.9c-0.7-3.6,0.2-8.7,3.7-10.2c2.5-1,5.7-0.1,7.7,1.6c2,1.9,3.3,4.7,3.6,7.6
						C457.5,358.6,457.5,360.6,456.9,362.4z"/>
				</g>
			</g>
		</g>
	</g>
	
	<image x="60" y="60" width="520" height="350" xlink:href="hero1.svg" />

</svg>
