<svg id="svg" version="1.1" xmlns="http://www.w3.org/2000/svg" viewBox="0 0 334 214" style="display: block;"><path d="M0 0 C110.22 0 220.44 0 334 0 C334 70.62 334 141.24 334 214 C223.78 214 113.56 214 0 214 C0 143.38 0 72.76 0 0 Z " transform="translate(0,0)" style="fill: #FCFBFC;"/><path d="M0 0 C0.99 0.33 1.98 0.66 3 1 C4.71548583 1.04766219 6.43289474 1.03775425 8.1484375 0.9921875 C9.15390625 0.97542969 10.159375 0.95867188 11.1953125 0.94140625 C13.30747321 0.89729479 15.4194841 0.8452684 17.53125 0.78515625 C27.10017669 0.65055498 27.10017669 0.65055498 31 4 C34.90778072 8.09386552 36.89653311 11.69560524 39 17 C39.72883587 18.25019291 40.45801618 19.50018506 41.1875 20.75 C44.18216236 26.64753431 43.72978738 33.02471297 42.1875 39.3125 C41.795625 40.199375 41.40375 41.08625 41 42 C40.566875 43.010625 40.13375 44.02125 39.6875 45.0625 C37.44723359 48.96222301 34.86937303 51.85496329 31.00390625 54.22265625 C28.67612677 55.68766242 26.87880402 56.97784928 25 59 C24.4015741 61.80158303 24.4015741 61.80158303 24.125 64.85546875 C23.20726178 68.93043599 22.70516272 70.51387543 19.22314453 72.91430664 C15.57761136 74.43452017 11.90996904 75.64514727 8.125 76.75 C6.8305966 77.17271526 5.53760091 77.59976697 4.24609375 78.03125 C-6.61134693 81.52559872 -6.61134693 81.52559872 -11 81 C-12.38232443 79.37373596 -13.71937515 77.7074998 -15 76 C-15.99 76 -16.98 76 -18 76 C-18 79.63 -18 83.26 -18 87 C-17.113125 86.484375 -16.22625 85.96875 -15.3125 85.4375 C-11.6447673 83.84584241 -10.69234 83.7824339 -7 85 C-4.90234375 86.8125 -4.90234375 86.8125 -2.9375 89 C-0.38431293 91.83125695 1.15934617 93.45255714 5 94 C5.14973267 93.12359863 5.14973267 93.12359863 5.30249023 92.22949219 C6.13130198 89.58031163 7.24780156 88.32662179 9.16015625 86.328125 C9.78857422 85.66425781 10.41699219 85.00039062 11.06445312 84.31640625 C11.72380859 83.63449219 12.38316406 82.95257813 13.0625 82.25 C13.72572266 81.55261719 14.38894531 80.85523437 15.07226562 80.13671875 C16.70843485 78.41815251 18.35108255 76.70632351 20 75 C24.38839598 75.8474024 26.08883936 77.9079154 29.125 81.1875 C35.55458767 87.86810877 41.86767634 92.15493685 50.875 94.6875 C54.35589136 95.83959134 55.64684721 96.42274779 57.58203125 99.5859375 C59.02439206 103.46960865 60 106.84560264 60 111 C59.37738281 111.29390625 58.75476563 111.5878125 58.11328125 111.890625 C48.46118266 116.57532557 39.23167974 121.95511485 29.93945312 127.30761719 C24.77858684 130.27897309 19.61134572 133.23880558 14.4375 136.1875 C12.96543091 137.03453491 12.96543091 137.03453491 11.46362305 137.89868164 C10.54621338 138.42067139 9.62880371 138.94266113 8.68359375 139.48046875 C7.87462646 139.94348389 7.06565918 140.40649902 6.23217773 140.88354492 C4.14087855 141.92953761 2.28411407 142.54174002 0 143 C-0.33 141.68 -0.66 140.36 -1 139 C9.92680168 132.47698496 20.96445274 126.17501346 32.09155273 119.99951172 C37.82243365 116.81157493 43.47463545 113.54327944 49.04125977 110.07519531 C51 109 51 109 53 109 C52.77196115 105.63642697 52.64726936 103.85991717 51 101 C48.19190392 99.41676005 45.34826639 98.42378227 42.3125 97.34375 C35.73937515 94.67729369 29.84340375 90.17025745 25.0625 84.9375 C24.381875 84.298125 23.70125 83.65875 23 83 C17.60802258 83.45675842 14.39249419 88.22356862 11 92 C8.58781629 94.94368181 6.26517192 97.9420179 4 101 C-0.6643511 99.08993767 -3.31920869 95.5119237 -6.5859375 91.80078125 C-8.93974373 89.63634219 -8.93974373 89.63634219 -12.2890625 90.23046875 C-13.18367188 90.48441406 -14.07828125 90.73835938 -15 91 C-15 92.65 -15 94.3 -15 96 C-16.98 96.99 -16.98 96.99 -19 98 C-19 97.34 -19 96.68 -19 96 C-20.32 96 -21.64 96 -23 96 C-23 96.66 -23 97.32 -23 98 C-23.99 98 -24.98 98 -26 98 C-26.50833591 96.75336669 -27.00631145 95.50250613 -27.5 94.25 C-27.7784375 93.55390625 -28.056875 92.8578125 -28.34375 92.140625 C-29 90 -29 90 -29 86 C-40.36304606 91.11002369 -40.36304606 91.11002369 -48 100.5625 C-49.05389758 104.18527292 -49.02833529 105.46961766 -48 109 C-46.71444392 111.26682124 -46.71444392 111.26682124 -45.05859375 113.43359375 C-44.47529297 114.24763672 -43.89199219 115.06167969 -43.29101562 115.90039062 C-42.05583568 117.59111639 -40.81624743 119.27863044 -39.57226562 120.96289062 C-35.08379504 127.25072595 -35.08379504 127.25072595 -34.59765625 131.59765625 C-34.73042969 132.39042969 -34.86320312 133.18320313 -35 134 C-38.58666353 132.80444549 -39.01490929 131.89646341 -41.0625 128.8125 C-43.18880317 125.62533159 -45.34961156 122.51637824 -47.71484375 119.50390625 C-48.40598267 118.60224731 -48.40598267 118.60224731 -49.11108398 117.68237305 C-50.01957875 116.50016409 -50.94441765 115.33029306 -51.88696289 114.17504883 C-54.29199375 110.98638222 -55.31037617 108.75814432 -54.88671875 104.84375 C-52.17381585 93.08385373 -44.69632167 88.19099675 -35 82 C-33.6696875 81.11441406 -33.6696875 81.11441406 -32.3125 80.2109375 C-30 79 -30 79 -26 79 C-25.49440092 80.43554025 -24.9957251 81.8735202 -24.5 83.3125 C-24.2215625 84.11300781 -23.943125 84.91351563 -23.65625 85.73828125 C-23 88 -23 88 -23 91 C-22.34 91 -21.68 91 -21 91 C-21.30035156 90.10796875 -21.60070312 89.2159375 -21.91015625 88.296875 C-22.29042969 87.12640625 -22.67070312 85.9559375 -23.0625 84.75 C-23.44535156 83.58984375 -23.82820313 82.4296875 -24.22265625 81.234375 C-24.96199415 78.15813488 -25.27917551 76.82930938 -24 74 C-19.16537181 69.0554939 -19.16537181 69.0554939 -15.375 68.875 C-13 70 -13 70 -11.125 72.625 C-10.42375 73.40875 -9.7225 74.1925 -9 75 C-2.96995698 74.74190477 2.34918423 72.58358324 7.9375 70.4375 C8.81212891 70.10814453 9.68675781 69.77878906 10.58789062 69.43945312 C12.72774809 68.63262162 14.86491864 67.81936819 17 67 C17.14308594 65.89527344 17.28617187 64.79054688 17.43359375 63.65234375 C17.91501212 60.54802527 18.41476939 58.64205102 20 56 C19.505 55.67 19.01 55.34 18.5 55 C16.54316886 52.39089181 16.58386854 50.19245938 16.70703125 46.99609375 C17.12920375 44.1196918 18.23822393 42.2837838 20 40 C20.391875 39.4225 20.78375 38.845 21.1875 38.25 C24.16933779 36.19356015 27.46175145 35.85544121 31 36 C34 37.4375 34 37.4375 36 39 C37.5965705 33.3089987 37.7987293 28.03312912 35.625 22.5 C34.24138268 19.90977444 34.24138268 19.90977444 32 19 C31.26608644 16.50290387 30.72067898 13.98909311 30.171875 11.4453125 C29.14357115 8.82065533 29.14357115 8.82065533 26.6015625 7.18359375 C21.5465497 5.52234768 16.90281303 5.75910453 11.625 5.9375 C4.66483941 6.14773621 -1.31078479 6.05146576 -8 4 C-7.88490339 5.41750563 -7.75746342 6.83401169 -7.625 8.25 C-7.52058594 9.43335938 -7.52058594 9.43335938 -7.4140625 10.640625 C-7.12349301 13.03517735 -7.12349301 13.03517735 -5.875 15.0625 C-5 17 -5 17 -6.375 20.75 C-6.91125 21.8225 -7.4475 22.895 -8 24 C-8.66 24 -9.32 24 -10 24 C-10.2784375 24.70125 -10.556875 25.4025 -10.84375 26.125 C-12.4506531 30.12054285 -14.11914841 34.08967182 -15.78125 38.0625 C-16.1834375 39.031875 -16.585625 40.00125 -17 41 C-17.37511719 41.82242188 -17.75023437 42.64484375 -18.13671875 43.4921875 C-19.16312211 46.47386605 -19.30066193 48.97607281 -19.3125 52.125 C-19.32925781 53.15882812 -19.34601563 54.19265625 -19.36328125 55.2578125 C-19.19261369 57.96124774 -19.19261369 57.96124774 -17.8828125 59.8359375 C-13.33014383 62.65065796 -7.09882859 61.57178222 -2 61 C2.86210908 59.57734252 8.01938254 58.00884478 11.64453125 54.33203125 C13 53 13 53 16 53 C16.3046875 55.26953125 16.3046875 55.26953125 16 58 C9.09881721 64.54693957 0.90746086 66.89636034 -8.33984375 67.05859375 C-18.02928322 66.72071678 -18.02928322 66.72071678 -21.1875 63.5625 C-21.785625 62.716875 -22.38375 61.87125 -23 61 C-23.66 60.34 -24.32 59.68 -25 59 C-27.46246408 46.92096568 -20.72185841 33.12776964 -14.50390625 23.13598633 C-11.85895613 18.672633 -11.88086663 15.99215514 -13 11 C-13.40623363 7.09083377 -13.54543497 3.97229712 -11.5625 0.4375 C-7.67010156 -1.74604059 -4.24787303 -0.91528756 0 0 Z " transform="translate(166,3)" style="fill: #BB70E0;"/><path d="M0 0 C1.62228516 0.25330078 1.62228516 0.25330078 3.27734375 0.51171875 C9.69382234 1.31819229 16.15185297 0.94190719 22.59960938 0.69726562 C28.94539538 0.58447022 32.97338441 0.95002304 38 5 C39.12109375 7.578125 39.12109375 7.578125 39.4375 10.25 C39.55996094 11.14203125 39.68242187 12.0340625 39.80859375 12.953125 C39.87175781 13.62859375 39.93492187 14.3040625 40 15 C40.99 15.33 41.98 15.66 43 16 C46.2903132 20.87453807 46.63786114 25.31153343 46 31 C45 34.0625 45 34.0625 44 36 C43.34 35.484375 42.68 34.96875 42 34.4375 C38.08658011 32.56231964 35.02367979 32.60114257 31 34 C27.67328661 36.07919587 25.45012489 38.33960554 24.41015625 42.17578125 C24.06000381 44.60512195 24.06000381 44.60512195 24 48 C23.01 48 22.02 48 21 48 C20.77183594 48.60457031 20.54367188 49.20914063 20.30859375 49.83203125 C18.62368928 52.62344015 16.99638648 53.32179954 14.0625 54.6875 C13.18722656 55.10386719 12.31195313 55.52023438 11.41015625 55.94921875 C7.13403208 57.81352572 3.71575578 58.21972785 -0.9375 58.3125 C-2.16339844 58.34988281 -3.38929688 58.38726562 -4.65234375 58.42578125 C-8 58 -8 58 -10.41015625 56.3359375 C-13.39356644 51.95245029 -12.64735967 47.08273487 -12 42 C-10.97935866 38.80862877 -9.53004224 35.97138638 -8 33 C-7.45885035 31.59096882 -6.93706936 30.17430413 -6.4375 28.75 C-5.27451671 25.58971931 -3.97891988 22.75327983 -2 20 C-1.34 20 -0.68 20 0 20 C0.144375 19.2575 0.28875 18.515 0.4375 17.75 C1 15 1 15 1.6875 12.8125 C1.790625 12.214375 1.89375 11.61625 2 11 C1.34 10.34 0.68 9.68 0 9 C-0.1953125 6.8359375 -0.1953125 6.8359375 -0.125 4.375 C-0.10695312 3.55773437 -0.08890625 2.74046875 -0.0703125 1.8984375 C-0.04710937 1.27195312 -0.02390625 0.64546875 0 0 Z " transform="translate(158,7)" style="fill: #FDFBFE;"/><path d="M0 0 C3.89502046 0.24652028 5.72513988 2.45705209 8.375 5.125 C14.55594585 10.89204323 22.1956411 15.29340278 30.3515625 17.69140625 C32.51276993 19.4070567 32.40214878 20.43638765 32.75 23.125 C32.8325 24.40375 32.915 25.6825 33 27 C32.36835938 27.35078613 31.73671875 27.70157227 31.0859375 28.06298828 C17.90406469 35.3923185 4.78655737 42.80474286 -8.20507812 50.46728516 C-18.63421305 56.60238707 -18.63421305 56.60238707 -22 58 C-22.99 57.67 -23.98 57.34 -25 57 C-26.78253819 46.52758815 -28.6243246 35.45564246 -26 25 C-25.93311409 23.08438746 -25.91468281 21.16664408 -25.9375 19.25 C-25.95103516 17.77273437 -25.95103516 17.77273437 -25.96484375 16.265625 C-25.97644531 15.51796875 -25.98804688 14.7703125 -26 14 C-29.09720845 13.12159004 -30.90645403 13.00564594 -34 14 C-34.33 12.35 -34.66 10.7 -35 9 C-32 7 -32 7 -30.1328125 7.0625 C-27.03391594 8.42465234 -25.19812402 10.5589861 -22.875 13 C-19.7664714 16.44052785 -19.7664714 16.44052785 -16 19 C-15.79375 18.47664063 -15.5875 17.95328125 -15.375 17.4140625 C-13.39953173 13.94576877 -10.7335524 11.26328178 -8 8.375 C-7.4534375 7.78976563 -6.906875 7.20453125 -6.34375 6.6015625 C-4.25718606 4.37180299 -2.15944305 2.15944305 0 0 Z " transform="translate(186,85)" style="fill: #FDFCFE;"/><path d="M0 0 C4.38839598 0.8474024 6.08883936 2.9079154 9.125 6.1875 C15.55458767 12.86810877 21.86767634 17.15493685 30.875 19.6875 C34.35589136 20.83959134 35.64684721 21.42274779 37.58203125 24.5859375 C39.02439206 28.46960865 40 31.84560264 40 36 C39.37738281 36.29390625 38.75476563 36.5878125 38.11328125 36.890625 C28.46118266 41.57532557 19.23167974 46.95511485 9.93945312 52.30761719 C4.77858684 55.27897309 -0.38865428 58.23880558 -5.5625 61.1875 C-6.54387939 61.75218994 -7.52525879 62.31687988 -8.53637695 62.89868164 C-9.45378662 63.42067139 -10.37119629 63.94266113 -11.31640625 64.48046875 C-12.12537354 64.94348389 -12.93434082 65.40649902 -13.76782227 65.88354492 C-15.85912145 66.92953761 -17.71588593 67.54174002 -20 68 C-20.33 66.68 -20.66 65.36 -21 64 C-10.07319832 57.47698496 0.96445274 51.17501346 12.09155273 44.99951172 C17.82243365 41.81157493 23.47463545 38.54327944 29.04125977 35.07519531 C31 34 31 34 33 34 C32.77196115 30.63642697 32.64726936 28.85991717 31 26 C28.19190392 24.41676005 25.34826639 23.42378227 22.3125 22.34375 C15.73937515 19.67729369 9.84340375 15.17025745 5.0625 9.9375 C4.381875 9.298125 3.70125 8.65875 3 8 C-2.39197742 8.45675842 -5.60750581 13.22356862 -9 17 C-11.41218371 19.94368181 -13.73482808 22.9420179 -16 26 C-20.6643511 24.08993767 -23.31920869 20.5119237 -26.5859375 16.80078125 C-28.93974373 14.63634219 -28.93974373 14.63634219 -32.2890625 15.23046875 C-33.18367188 15.48441406 -34.07828125 15.73835938 -35 16 C-35 17.65 -35 19.3 -35 21 C-36.98 21.99 -36.98 21.99 -39 23 C-39 22.34 -39 21.68 -39 21 C-40.32 21 -41.64 21 -43 21 C-43 21.66 -43 22.32 -43 23 C-43.99 23 -44.98 23 -46 23 C-46.50833591 21.75336669 -47.00631145 20.50250613 -47.5 19.25 C-47.7784375 18.55390625 -48.056875 17.8578125 -48.34375 17.140625 C-49 15 -49 15 -49 11 C-60.36304606 16.11002369 -60.36304606 16.11002369 -68 25.5625 C-69.05389758 29.18527292 -69.02833529 30.46961766 -68 34 C-66.71444392 36.26682124 -66.71444392 36.26682124 -65.05859375 38.43359375 C-64.47529297 39.24763672 -63.89199219 40.06167969 -63.29101562 40.90039062 C-62.05583568 42.59111639 -60.81624743 44.27863044 -59.57226562 45.96289062 C-55.08379504 52.25072595 -55.08379504 52.25072595 -54.59765625 56.59765625 C-54.73042969 57.39042969 -54.86320312 58.18320313 -55 59 C-58.58666353 57.80444549 -59.01490929 56.89646341 -61.0625 53.8125 C-63.18880317 50.62533159 -65.34961156 47.51637824 -67.71484375 44.50390625 C-68.40598267 43.60224731 -68.40598267 43.60224731 -69.11108398 42.68237305 C-70.01957875 41.50016409 -70.94441765 40.33029306 -71.88696289 39.17504883 C-74.29199375 35.98638222 -75.31037617 33.75814432 -74.88671875 29.84375 C-72.17381585 18.08385373 -64.69632167 13.19099675 -55 7 C-54.113125 6.40960938 -53.22625 5.81921875 -52.3125 5.2109375 C-50 4 -50 4 -46 4 C-45.49440092 5.43554025 -44.9957251 6.8735202 -44.5 8.3125 C-44.2215625 9.11300781 -43.943125 9.91351563 -43.65625 10.73828125 C-43 13 -43 13 -43 16 C-42.34 16 -41.68 16 -41 16 C-41 14.02 -41 12.04 -41 10 C-40.01 10 -39.02 10 -38 10 C-38 10.66 -38 11.32 -38 12 C-37.113125 11.484375 -36.22625 10.96875 -35.3125 10.4375 C-31.6447673 8.84584241 -30.69234 8.7824339 -27 10 C-24.90234375 11.8125 -24.90234375 11.8125 -22.9375 14 C-20.38431293 16.83125695 -18.84065383 18.45255714 -15 19 C-14.90017822 18.41573242 -14.80035645 17.83146484 -14.69750977 17.22949219 C-13.86869802 14.58031163 -12.75219844 13.32662179 -10.83984375 11.328125 C-10.21142578 10.66425781 -9.58300781 10.00039062 -8.93554688 9.31640625 C-8.27619141 8.63449219 -7.61683594 7.95257813 -6.9375 7.25 C-6.27427734 6.55261719 -5.61105469 5.85523437 -4.92773438 5.13671875 C-3.29156515 3.41815251 -1.64891745 1.70632351 0 0 Z " transform="translate(186,78)" style="fill: #9866FE;"/><path d="M0 0 C1 1 1 1 1.1328125 3.36328125 C1.13023437 4.33652344 1.12765625 5.30976562 1.125 6.3125 C1.12886719 7.76076172 1.12886719 7.76076172 1.1328125 9.23828125 C1.01469492 11.69443215 0.59118087 13.63527653 0 16 C-0.61855447 24.69544845 0.22379574 32.74076169 2.02050781 41.2253418 C3.5105439 48.51735713 3.5105439 48.51735713 2 52 C-0.11508457 53.66374853 -1.998153 54.94331114 -4.3125 56.25 C-4.89451172 56.600625 -5.47652344 56.95125 -6.07617188 57.3125 C-8.98247137 59.02402405 -11.65515333 60.43839611 -15 61 C-15.83905565 59.87926138 -16.67107831 58.75325453 -17.5 57.625 C-17.9640625 56.99851563 -18.428125 56.37203125 -18.90625 55.7265625 C-20 54 -20 54 -20 52 C-20.66 52 -21.32 52 -22 52 C-25.72866073 47.50367383 -26.38513336 44.74737479 -26 39 C-25.4382734 36.2555148 -24.65186271 33.60870467 -23.8125 30.9375 C-23.58763916 30.20233154 -23.36277832 29.46716309 -23.13110352 28.7097168 C-22.43662862 26.46772074 -21.72308806 24.23291981 -21 22 C-20.78118164 21.32291992 -20.56236328 20.64583984 -20.33691406 19.94824219 C-15.12171216 4.04862361 -15.12171216 4.04862361 -10 0.6875 C-6.23523137 -0.60663922 -3.88120469 -1.33834644 0 0 Z " transform="translate(160,98)" style="fill: #C17DE2;"/><path d="M0 0 C1.17369141 0.11794922 1.17369141 0.11794922 2.37109375 0.23828125 C4.5625 0.6875 4.5625 0.6875 7.5625 2.6875 C7.5625 3.3475 7.5625 4.0075 7.5625 4.6875 C8.2225 4.6875 8.8825 4.6875 9.5625 4.6875 C9.5625 7.3275 9.5625 9.9675 9.5625 12.6875 C10.2225 12.3575 10.8825 12.0275 11.5625 11.6875 C12.2225 12.0175 12.8825 12.3475 13.5625 12.6875 C12.6875 17.4375 12.6875 17.4375 11.5625 19.6875 C11.76875 20.945625 11.975 22.20375 12.1875 23.5 C12.77970764 27.53578538 11.95774244 29.33416058 9.5625 32.6875 C9.5625 33.6775 9.5625 34.6675 9.5625 35.6875 C7.14937952 38.29367011 5.68460778 38.67417915 2.125 39.0625 C-1.74768967 38.65484846 -3.26648581 37.85307067 -6.4375 35.6875 C-7.78880912 35.07696877 -9.14322373 34.47328326 -10.5 33.875 C-14.59595315 31.7844379 -16.5978634 30.05663694 -18.4375 25.6875 C-18.74897632 21.33202275 -18.67026105 17.04530415 -18.4375 12.6875 C-17.7775 12.6875 -17.1175 12.6875 -16.4375 12.6875 C-16.36402344 11.93984375 -16.29054687 11.1921875 -16.21484375 10.421875 C-15.22866797 6.95291497 -13.89003624 6.02757421 -11 3.9375 C-10.19691406 3.34453125 -9.39382812 2.7515625 -8.56640625 2.140625 C-5.32275651 -0.07338914 -3.86951567 -0.42571026 0 0 Z " transform="translate(162.4375,172.3125)" style="fill: #AC41AA;"/><path d="M0 0 C4.60197407 5.43625007 4.54542334 10.79124163 4.5 17.58203125 C4.10789742 21.90045833 3.20553454 23.68546805 0.2109375 26.765625 C-5.28894573 28.59891941 -10.6976797 28.57482059 -16.0390625 26.203125 C-19.12151029 24.54149299 -20.38132648 23.00043387 -22.0390625 19.953125 C-23.07095267 18.04254137 -23.07095267 18.04254137 -24.7890625 16.765625 C-28.07426163 16.55156282 -30.99396542 16.88347546 -34.2421875 17.3984375 C-35.08265625 17.51960938 -35.923125 17.64078125 -36.7890625 17.765625 C-37.7890625 16.765625 -37.7890625 16.765625 -38.2890625 14.078125 C-37.65885615 9.90300792 -36.44664254 8.74838147 -33.19140625 6.21875 C-25.57831256 1.61375674 -8.54761489 -5.89748102 0 0 Z " transform="translate(46.7890625,61.234375)" style="fill: #AD3FA5;"/><path d="M0 0 C0.66 1.65 1.32 3.3 2 5 C0.71034824 6.37562854 -0.62689293 7.70766393 -2 9 C-2.66 9 -3.32 9 -4 9 C-4.66 10.32 -5.32 11.64 -6 13 C-3.03 13.33 -0.06 13.66 3 14 C3.33 15.32 3.66 16.64 4 18 C1.75 20.5625 1.75 20.5625 -1 23 C-2.75149165 24.58245275 -2.75149165 24.58245275 -4 26 C-4 26.66 -4 27.32 -4 28 C-1.35731604 27.49179155 0.47848844 26.73995193 2.875 25.4375 C6.25294098 23.88364715 8.33058927 23.66641721 12 24 C14 25 14 25 15.0625 27.6875 C15 31 15 31 13.74609375 32.58984375 C11.90726707 34.20653029 10.01881333 35.61522631 8 37 C7.13568359 37.62648438 7.13568359 37.62648438 6.25390625 38.265625 C1.61858688 41.30588066 -1.65842782 41.77538951 -7 41 C-10.72951489 38.16232562 -12.60028101 35.45365132 -14 31 C-16.31 31.33 -18.62 31.66 -21 32 C-21.38218767 30.34385343 -21.71395102 28.67542976 -22 27 C-21.67 26.67 -21.34 26.34 -21 26 C-20.96210757 24.0569605 -20.92768426 22.11376964 -20.91381836 20.17041016 C-20.7516747 10.32145726 -20.7516747 10.32145726 -18.66015625 6.64453125 C-16.84138802 5.04022095 -15.20062815 4.01372506 -13 3 C-11.97712891 2.505 -11.97712891 2.505 -10.93359375 2 C-7.24257585 0.4311423 -4.05316707 -0.37998441 0 0 Z " transform="translate(219,159)" style="fill: #C54E8B;"/><path d="M0 0 C0.50559908 1.43554025 1.0042749 2.8735202 1.5 4.3125 C1.7784375 5.11300781 2.056875 5.91351563 2.34375 6.73828125 C3 9 3 9 3 12 C3.99 12 4.98 12 6 12 C6 11.34 6 10.68 6 10 C7.32 10 8.64 10 10 10 C10.125 12.375 10.125 12.375 10 15 C9.34 15.66 8.68 16.32 8 17 C6.29621662 21.06847509 4.93360934 25.2672083 3.5 29.4375 C3.09652344 30.57638672 2.69304687 31.71527344 2.27734375 32.88867188 C-0.13901877 39.87060385 -1.94115685 46.68528201 -3 54 C-3.268125 53.360625 -3.53625 52.72125 -3.8125 52.0625 C-4.88667752 49.66868314 -4.88667752 49.66868314 -8 49 C-7.01 48.505 -7.01 48.505 -6 48 C-7.38683518 39.82791083 -11.46663974 34.89018272 -16.56445312 28.53515625 C-21.01030863 22.74222133 -21.01030863 22.74222133 -20.953125 18.625 C-20.63859375 17.75875 -20.3240625 16.8925 -20 16 C-19.690625 15.05125 -19.38125 14.1025 -19.0625 13.125 C-15.13531893 7.17472565 -7.51312666 0 0 0 Z " transform="translate(137,89)" style="fill: #FBF8FE;"/><path d="M0 0 C3.1875 0.3125 3.1875 0.3125 5.35546875 1.87109375 C7.87064139 5.22286966 7.72066663 7.53337929 7.6875 11.6875 C7.6978125 12.97398438 7.708125 14.26046875 7.71875 15.5859375 C6.9880377 20.71166935 4.90036397 23.84433089 1 27.1875 C-4.47148772 29.37609509 -9.08598315 29.01481194 -14.5 26.8125 C-19.08443555 23.84170027 -22.39189277 19.15371447 -24.8125 14.3125 C-25.015625 12.25390625 -25.015625 12.25390625 -25.0625 9.875 C-25.10117187 8.70130859 -25.10117187 8.70130859 -25.140625 7.50390625 C-24.8125 5.3125 -24.8125 5.3125 -23.55859375 3.59375 C-20.28180675 1.18930674 -16.79158631 0.85189837 -12.8125 1.3125 C-9.78766707 2.9497033 -7.31282444 4.96205877 -4.8125 7.3125 C-4.668125 6.343125 -4.52375 5.37375 -4.375 4.375 C-3.64583333 0.40509259 -3.64583333 0.40509259 0 0 Z " transform="translate(317.8125,59.6875)" style="fill: #CB5184;"/><path d="M0 0 C0.99 0.33 1.98 0.66 3 1 C4.71548583 1.04766219 6.43289474 1.03775425 8.1484375 0.9921875 C9.65664062 0.96705078 9.65664062 0.96705078 11.1953125 0.94140625 C13.30747321 0.89729479 15.4194841 0.8452684 17.53125 0.78515625 C26.99226251 0.65207295 26.99226251 0.65207295 31 4 C31.78375 4.598125 32.5675 5.19625 33.375 5.8125 C35 8 35 8 34.75 11.25 C34.5025 12.1575 34.255 13.065 34 14 C33.34 14 32.68 14 32 14 C31.5875 13.236875 31.175 12.47375 30.75 11.6875 C28.45887223 8.16898235 26.95643912 7.46757286 23 6 C19.19907053 5.6905105 15.43337741 5.80877296 11.625 5.9375 C4.66483941 6.14773621 -1.31078479 6.05146576 -8 4 C-7.88490339 5.41750563 -7.75746342 6.83401169 -7.625 8.25 C-7.55539063 9.03890625 -7.48578125 9.8278125 -7.4140625 10.640625 C-7.12349301 13.03517735 -7.12349301 13.03517735 -5.875 15.0625 C-5 17 -5 17 -6.375 20.75 C-6.91125 21.8225 -7.4475 22.895 -8 24 C-8.66 24 -9.32 24 -10 24 C-10.2784375 24.70125 -10.556875 25.4025 -10.84375 26.125 C-12.4506531 30.12054285 -14.11914841 34.08967182 -15.78125 38.0625 C-16.38453125 39.5165625 -16.38453125 39.5165625 -17 41 C-17.37511719 41.82242188 -17.75023437 42.64484375 -18.13671875 43.4921875 C-19.16312211 46.47386605 -19.30066193 48.97607281 -19.3125 52.125 C-19.32925781 53.15882812 -19.34601563 54.19265625 -19.36328125 55.2578125 C-19.19261369 57.96124774 -19.19261369 57.96124774 -17.8828125 59.8359375 C-13.33014383 62.65065796 -7.09882859 61.57178222 -2 61 C2.86210908 59.57734252 8.01938254 58.00884478 11.64453125 54.33203125 C13 53 13 53 16 53 C16.3046875 55.26953125 16.3046875 55.26953125 16 58 C9.09881721 64.54693957 0.90746086 66.89636034 -8.33984375 67.05859375 C-18.02928322 66.72071678 -18.02928322 66.72071678 -21.1875 63.5625 C-21.785625 62.716875 -22.38375 61.87125 -23 61 C-23.66 60.34 -24.32 59.68 -25 59 C-27.46246408 46.92096568 -20.72185841 33.12776964 -14.50390625 23.13598633 C-11.85895613 18.672633 -11.88086663 15.99215514 -13 11 C-13.40623363 7.09083377 -13.54543497 3.97229712 -11.5625 0.4375 C-7.67010156 -1.74604059 -4.24787303 -0.91528756 0 0 Z " transform="translate(166,3)" style="fill: #BC72E0;"/><path d="M0 0 C-0.08566397 2.912575 -0.57910955 4.56798024 -2.625 6.66796875 C-4.38391375 8.16091772 -6.16313019 9.60436262 -8 11 C-8.33 10.34 -8.66 9.68 -9 9 C-9.99 9.33 -10.98 9.66 -12 10 C-13.35479692 9.99463447 -14.70981746 9.95085136 -16.0625 9.875 C-17.361875 9.91625 -18.66125 9.9575 -20 10 C-20.99 11.485 -20.99 11.485 -22 13 C-19.35196246 16.41281372 -16.42726168 16.83195549 -12.3125 17.6875 C-11.13300781 17.93886719 -9.95351562 18.19023437 -8.73828125 18.44921875 C-7.83464844 18.63097656 -6.93101563 18.81273437 -6 19 C-4.8671875 24.7734375 -4.8671875 24.7734375 -6.0625 26.8125 C-8.61774576 28.37861837 -11.0617604 28.55287658 -14 29 C-14.33 29.66 -14.66 30.32 -15 31 C-22.23853382 30.12260196 -27.75683869 25.74381261 -33 21 C-34.98814125 17.0237175 -34.5259382 12.32370123 -34 8 C-31.47067572 3.6527239 -28.19238978 0.77667346 -23.6484375 -1.3125 C-16.35583454 -3.20556508 -6.82675882 -3.31396059 0 0 Z " transform="translate(127,165)" style="fill: #DF5D6D;"/><path d="M0 0 C4.32154683 1.69244435 8.66626023 3.45395542 12.42578125 6.2109375 C12.42578125 6.8709375 12.42578125 7.5309375 12.42578125 8.2109375 C13.74578125 8.8709375 15.06578125 9.5309375 16.42578125 10.2109375 C16.46832481 12.21048496 16.46658908 14.21135386 16.42578125 16.2109375 C15.42578125 17.2109375 15.42578125 17.2109375 12.36328125 17.2734375 C11.39390625 17.2528125 10.42453125 17.2321875 9.42578125 17.2109375 C9.32265625 18.0978125 9.21953125 18.9846875 9.11328125 19.8984375 C8.40729347 23.30001499 7.43268079 25.40127815 5.42578125 28.2109375 C2.31028253 29.76868686 -1.17865755 29.77574372 -4.57421875 29.2109375 C-6.30078125 28.0234375 -6.30078125 28.0234375 -7.57421875 26.2109375 C-8.51407497 20.89355278 -8.29183978 15.75267836 -5.57421875 11.0234375 C-4.91421875 10.0953125 -4.25421875 9.1671875 -3.57421875 8.2109375 C-4.89421875 8.2109375 -6.21421875 8.2109375 -7.57421875 8.2109375 C-7.90421875 10.5209375 -8.23421875 12.8309375 -8.57421875 15.2109375 C-12.32421875 16.3359375 -12.32421875 16.3359375 -14.57421875 15.2109375 C-15.83118875 10.72175892 -15.89795906 7.07424499 -14.26171875 2.7109375 C-10.87741193 -2.30285038 -5.30436812 -1.62592164 0 0 Z " transform="translate(260.57421875,142.7890625)" style="fill: #CA6190;"/><path d="M0 0 C3.5 1.4375 3.5 1.4375 6 4 C7.43115289 9.60351402 5.84876668 14.03028331 3.078125 18.87890625 C1.45602316 22.07021531 0.67136022 25.43665403 -0.19140625 28.8984375 C-1 31 -1 31 -4 33 C-8.54054054 32.45945946 -8.54054054 32.45945946 -10 31 C-10.04080783 29.00041636 -10.04254356 26.99954746 -10 25 C-11.8253125 25.12375 -11.8253125 25.12375 -13.6875 25.25 C-17.0726174 25.26200396 -17.93868234 25.03913893 -20.9375 23.125 C-23.40722893 20.5804308 -23.92945549 19.64900949 -24.3125 16.125 C-24 13 -24 13 -22.625 10.625 C-18.53423042 8.09261883 -14.68389726 8.39179244 -10 9 C-7.17294893 9.79539218 -4.69522417 10.80212259 -2 12 C-2.33 11.01 -2.66 10.02 -3 9 C-4.87387216 8.19787372 -4.87387216 8.19787372 -7.0625 7.8125 C-7.79597656 7.65394531 -8.52945313 7.49539062 -9.28515625 7.33203125 C-9.85105469 7.22246094 -10.41695312 7.11289063 -11 7 C-11.1875 4.625 -11.1875 4.625 -11 2 C-7.27074935 -0.4861671 -4.31704645 -0.62601238 0 0 Z " transform="translate(74,133)" style="fill: #C8528A;"/><path d="M0 0 C-0.01571045 1.04788696 -0.01571045 1.04788696 -0.03173828 2.11694336 C-0.21060741 15.9023191 -0.12760875 29.36050821 2 43 C0.76055724 43.86941494 -0.49207059 44.72005457 -1.75 45.5625 C-2.44609375 46.03816406 -3.1421875 46.51382813 -3.859375 47.00390625 C-6 48 -6 48 -8.05859375 47.8671875 C-11.99270438 46.10989865 -14.16917195 42.79959519 -16 39 C-16.78721291 31.98454376 -14.00832131 24.64388055 -12 18 C-11.34 18 -10.68 18 -10 18 C-9.86207031 17.29230469 -9.72414062 16.58460937 -9.58203125 15.85546875 C-8.99852259 12.99275176 -8.38061313 10.1507789 -7.6875 7.3125 C-7.35298828 5.88357422 -7.35298828 5.88357422 -7.01171875 4.42578125 C-6 2 -6 2 -4.01953125 0.66796875 C-2 0 -2 0 0 0 Z " transform="translate(155,104)" style="fill: #FBF7FD;"/><path d="M0 0 C2.375 0.375 2.375 0.375 4.375 2.375 C4.375 3.695 4.375 5.015 4.375 6.375 C4.96667969 5.65376953 4.96667969 5.65376953 5.5703125 4.91796875 C8.48541152 2.42562219 11.2091253 2.65706507 14.921875 2.765625 C17.94624317 3.51690117 18.77395132 4.37818645 20.5 6.9375 C22.4547884 10.88185951 23.11049704 13.96201777 22.375 18.375 C20.75 21.8125 20.75 21.8125 18.375 24.375 C15.15591798 24.82567148 13.28555201 24.830276 10.375 23.375 C11.125 18.625 11.125 18.625 13.375 16.375 C13.77264263 14.38678687 14.11275349 12.38555661 14.375 10.375 C11.1365358 10.99185032 8.96569803 11.64647243 6.8515625 14.25390625 C6.36429687 14.97449219 5.87703125 15.69507812 5.375 16.4375 C2.76190476 20.26036155 2.76190476 20.26036155 -1 21.375 C-1.86625 21.375 -2.7325 21.375 -3.625 21.375 C-6.26573659 17.57149876 -7.05665828 14.93330346 -7.0625 10.3125 C-7.08183594 9.29027344 -7.10117187 8.26804687 -7.12109375 7.21484375 C-6.37047169 2.91797572 -4.35943955 0.62277708 0 0 Z " transform="translate(284.625,105.625)" style="fill: #D65B7A;"/><path d="M0 0 C1 1 1 1 1.5 3.25 C1 6 1 6 -1.75 8.5 C-4.96916058 10.61135228 -8.27678131 11.90641962 -11.875 13.25 C-17.67256644 15.50099021 -20.82318898 18.63510866 -24.9609375 23.1640625 C-27 25 -27 25 -30.9375 25.6875 C-34 25 -34 25 -36 23 C-36.625 19.8125 -36.625 19.8125 -36 16 C-28.61563389 5.92434383 -12.08845466 -0.61466719 0 0 Z " transform="translate(62,104)" style="fill: #D95A77;"/><path d="M0 0 C3 4.38461538 3 4.38461538 3 7 C4.65 6.67 6.3 6.34 8 6 C7.67 7.32 7.34 8.64 7 10 C5.68 10 4.36 10 3 10 C3 10.99 3 11.98 3 13 C3.94875 12.67 4.8975 12.34 5.875 12 C10.51330851 10.65983299 15.20610756 10.60510081 20 11 C21 12 21 12 21.3125 15.375 C21 19 21 19 19.1875 20.875 C15.39770244 22.82403874 12.33776447 23.18696612 8.125 23.25 C6.58199219 23.28867188 6.58199219 23.28867188 5.0078125 23.328125 C0.63842202 22.85146422 -1.9371613 21.0628387 -5 18 C-6.22483511 13.83556062 -6.65060209 9.30264848 -6 5 C-2.875 0 -2.875 0 0 0 Z " transform="translate(151,182)" style="fill: #DD5B6E;"/><path d="M0 0 C1.65 0.66 3.3 1.32 5 2 C5 2.66 5 3.32 5 4 C5.66 4 6.32 4 7 4 C7 6.64 7 9.28 7 12 C7.66 11.67 8.32 11.34 9 11 C9.66 11.33 10.32 11.66 11 12 C10.125 16.75 10.125 16.75 9 19 C9.20625 20.258125 9.4125 21.51625 9.625 22.8125 C10.21720764 26.84828538 9.39524244 28.64666058 7 32 C7 32.99 7 33.98 7 35 C4.58687952 37.60617011 3.12210778 37.98667915 -0.4375 38.375 C-4.31018967 37.96734846 -5.82898581 37.16557067 -9 35 C-11.06600452 34.02705601 -13.14152646 33.08280571 -15.23046875 32.16015625 C-17.39845618 30.73876052 -18.03548914 29.36923436 -19 27 C-18.0925 27.66 -17.185 28.32 -16.25 29 C-11.12246805 31.93449385 -5.73650811 31.69028521 0 31 C2.35826453 30.2343297 3.92234771 29.38510153 6 28 C6 25.69 6 23.38 6 21 C0.21408489 20.89522488 -5.29309366 21.00749455 -11 22 C-11 21.01 -11 20.02 -11 19 C-9.60974609 18.70996094 -9.60974609 18.70996094 -8.19140625 18.4140625 C-6.99386719 18.15367187 -5.79632813 17.89328125 -4.5625 17.625 C-3.36753906 17.36976563 -2.17257813 17.11453125 -0.94140625 16.8515625 C0.02925781 16.57054687 0.99992187 16.28953125 2 16 C3.21693876 13.56612247 3.31959896 11.58161154 3.5625 8.875 C3.64628906 7.96492187 3.73007813 7.05484375 3.81640625 6.1171875 C3.90728516 5.06917969 3.90728516 5.06917969 4 4 C3.34 4 2.68 4 2 4 C1.34 2.68 0.68 1.36 0 0 Z " transform="translate(165,173)" style="fill: #C095A1;"/><path d="M0 0 C0.70769531 -0.01224609 1.41539063 -0.02449219 2.14453125 -0.03710938 C6.25932929 -0.04860322 9.42660538 0.3528062 13.125 2.1875 C13.03933603 5.100075 12.54589045 6.75548024 10.5 8.85546875 C8.74108625 10.34841772 6.96186981 11.79186262 5.125 13.1875 C4.795 12.5275 4.465 11.8675 4.125 11.1875 C3.135 11.5175 2.145 11.8475 1.125 12.1875 C-0.22979692 12.18213447 -1.58481746 12.13835136 -2.9375 12.0625 C-4.236875 12.10375 -5.53625 12.145 -6.875 12.1875 C-7.865 13.6725 -7.865 13.6725 -8.875 15.1875 C-8.545 16.1775 -8.215 17.1675 -7.875 18.1875 C-8.865 17.8575 -9.855 17.5275 -10.875 17.1875 C-11.06941368 14.8964095 -11.25533135 12.60459663 -11.4375 10.3125 C-11.54191406 9.03632813 -11.64632812 7.76015625 -11.75390625 6.4453125 C-11.875 3.1875 -11.875 3.1875 -10.875 1.1875 C-7.21148419 -0.03367194 -3.81447028 0.00343646 0 0 Z " transform="translate(113.875,162.8125)" style="fill: #A235B0;"/><path d="M0 0 C8.79590094 -0.76857387 8.79590094 -0.76857387 12.9375 1.875 C16.61771976 7.45109055 18.22635376 13.3285209 18 20 C20.475 18.515 20.475 18.515 23 17 C23.38337899 20.81687614 23.25427412 22.59848595 21.171875 25.88671875 C20.37265625 26.81097656 19.5734375 27.73523438 18.75 28.6875 C17.96109375 29.61949219 17.1721875 30.55148438 16.359375 31.51171875 C14.32259718 33.65977748 12.53090715 35.47300174 10 37 C7.3125 36.375 7.3125 36.375 5 35 C4.67 34.01 4.34 33.02 4 32 C3.01 31.938125 2.02 31.87625 1 31.8125 C-5.04100773 30.94601202 -9.67686583 27.29974958 -14 23.1875 C-18.01708763 20.2583736 -20.1378219 20.58084672 -25 21 C-21.46588679 18.87953208 -18.05606165 18.46800711 -14 18 C-13.47212891 18.81404297 -13.47212891 18.81404297 -12.93359375 19.64453125 C-9.53282948 24.57253169 -6.98884887 27.37590539 -1 29 C3.2698265 29.37066941 6.91706185 29.36097938 11 28 C15.22348444 22.51740165 14.631456 16.61367074 14 10 C12.67213792 6.43891533 11.64486434 4.64486434 9 2 C6.79749008 1.53993654 6.79749008 1.53993654 4.375 1.375 C3.55773437 1.30023438 2.74046875 1.22546875 1.8984375 1.1484375 C1.27195312 1.09945312 0.64546875 1.05046875 0 1 C0 0.67 0 0.34 0 0 Z " transform="translate(36,59)" style="fill: #DDDDDD;"/><path d="M0 0 C3.16115776 1.36983503 3.9927092 1.9890638 6 5 C7.27854661 10.41320135 7.25374212 14.82965043 5 20 C5.66 20 6.32 20 7 20 C7.66 18.68 8.32 17.36 9 16 C9.66 16 10.32 16 11 16 C11.66 15.01 12.32 14.02 13 13 C13.87053801 18.17486486 14.21576904 22.28201144 11.08984375 26.69921875 C6.52849716 31.07726548 2.43642227 34.190366 -4.0390625 34.28125 C-6.91960735 33.86810412 -8.69535743 32.74405384 -11 31 C-12.99242489 29.9849911 -14.99074195 28.98126556 -17 28 C-14.10087628 27.03362543 -12.59813881 26.97279153 -9.625 27.125 C-5.55761855 27.15801446 -3.1903141 26.72115026 0 24 C3.1389567 19.82488284 3.40576443 16.60079646 3.375 11.4375 C3.38273437 10.13683594 3.39046875 8.83617188 3.3984375 7.49609375 C2.99202848 3.9300538 2.44571224 2.54276431 0 0 Z " transform="translate(321,60)" style="fill: #D9D8D8;"/><path d="M0 0 C2.29296875 0.76171875 2.29296875 0.76171875 3.29296875 1.76171875 C3.41796875 4.76171875 3.41796875 4.76171875 3.29296875 7.76171875 C2.29296875 8.76171875 2.29296875 8.76171875 -0.76953125 8.82421875 C-1.73890625 8.80359375 -2.70828125 8.78296875 -3.70703125 8.76171875 C-3.86171875 10.09203125 -3.86171875 10.09203125 -4.01953125 11.44921875 C-4.72551903 14.85079624 -5.70013171 16.9520594 -7.70703125 19.76171875 C-9.9359412 20.87617373 -11.23758231 20.92652161 -13.70703125 20.94921875 C-14.75890625 20.97048828 -14.75890625 20.97048828 -15.83203125 20.9921875 C-17.70703125 20.76171875 -17.70703125 20.76171875 -19.70703125 18.76171875 C-20.20703125 16.44921875 -20.20703125 16.44921875 -19.70703125 13.76171875 C-17.85732042 11.78295833 -15.91409511 10.37103615 -13.70703125 8.76171875 C-13.70703125 9.42171875 -13.70703125 10.08171875 -13.70703125 10.76171875 C-12.71703125 10.76171875 -11.72703125 10.76171875 -10.70703125 10.76171875 C-10.70703125 9.44171875 -10.70703125 8.12171875 -10.70703125 6.76171875 C-9.1328125 4.8046875 -9.1328125 4.8046875 -7.01953125 2.94921875 C-6.33503906 2.32402344 -5.65054687 1.69882813 -4.9453125 1.0546875 C-2.70703125 -0.23828125 -2.70703125 -0.23828125 0 0 Z " transform="translate(273.70703125,151.23828125)" style="fill: #E35F68;"/><path d="M0 0 C1.08453972 3.30343397 0.85691287 5.44140949 0.0703125 8.80078125 C-1.34127614 15.93345564 -1.21905294 22.94180617 -1.125 30.1875 C-1.1149393 31.53449847 -1.10581897 32.88150431 -1.09765625 34.22851562 C-1.07430604 37.48587021 -1.0415577 40.74283549 -1 44 C-2.485 44.495 -2.485 44.495 -4 45 C-5.60712869 37.1365489 -6.19337275 29.57000012 -6.1875 21.5625 C-6.18814453 20.71075195 -6.18878906 19.85900391 -6.18945312 18.98144531 C-6.1510143 14.54874978 -5.88662643 10.36220204 -5 6 C-6.98 6.33 -8.96 6.66 -11 7 C-11.33 5.35 -11.66 3.7 -12 2 C-7.72170329 -0.29194467 -4.74957752 -1.52664992 0 0 Z " transform="translate(160,98)" style="fill: #BB71E0;"/><path d="M0 0 C1.32 0 2.64 0 4 0 C5.21561294 6.44803388 5.35820997 10.70235097 1.91015625 16.40625 C0.83469676 17.98357027 0.83469676 17.98357027 1 20 C1.66 20 2.32 20 3 20 C3.28875 19.4225 3.5775 18.845 3.875 18.25 C5.4375 15.125 5.4375 15.125 7 12 C7.66 12 8.32 12 9 12 C6.83210425 27.76187733 6.83210425 27.76187733 0.8125 32.875 C-0.5796875 33.926875 -0.5796875 33.926875 -2 35 C-2.515625 34.690625 -3.03125 34.38125 -3.5625 34.0625 C-6.10656272 32.80782826 -6.10656272 32.80782826 -9.5625 32.625 C-13 32 -13 32 -14.9375 30.125 C-16 28 -16 28 -16 25 C-17.98 24.67 -19.96 24.34 -22 24 C-22 23.67 -22 23.34 -22 23 C-19.36 23 -16.72 23 -14 23 C-13.34 25.31 -12.68 27.62 -12 30 C-10.02 29.67 -8.04 29.34 -6 29 C-5.74605469 28.20335937 -5.49210937 27.40671875 -5.23046875 26.5859375 C-2.28598787 17.52090648 -2.28598787 17.52090648 -0.25 13.8125 C1.48962472 9.89834439 1.43969138 6.22780172 1 2 C0.67 1.34 0.34 0.68 0 0 Z " transform="translate(78,135)" style="fill: #D5CFCF;"/><path d="M0 0 C1 1 1 1 1.5 3.25 C1 6 1 6 -1.75 8.5 C-4.96916058 10.61135228 -8.27678131 11.90641962 -11.875 13.25 C-17.6720542 15.50079133 -20.82992324 18.62732416 -24.953125 23.171875 C-27.18269808 25.1631731 -28.12215072 25.58602279 -31.0625 25.5625 C-32.031875 25.376875 -33.00125 25.19125 -34 25 C-34 24.67 -34 24.34 -34 24 C-32.515 23.7525 -32.515 23.7525 -31 23.5 C-26.43693674 22.25047963 -23.96085642 19.23086273 -20.89453125 15.77734375 C-18.88356073 13.89076316 -17.69082629 13.3878131 -15 13 C-15.33 10.69 -15.66 8.38 -16 6 C-17.65 6 -19.3 6 -21 6 C-15.70920033 0.70920033 -7.19586053 -0.66628338 0 0 Z " transform="translate(62,104)" style="fill: #AB5EBF;"/><path d="M0 0 C2.31 0.33 4.62 0.66 7 1 C7.36471664 7.44332724 7.36471664 7.44332724 5.8125 9.8125 C4 11 4 11 1.5625 11.6875 C-2.33460105 13.68357615 -3.36701809 17.0771943 -5 21 C-1.86589178 18.50695937 0.74147346 16.32315817 3.25 13.1875 C3.8275 12.465625 4.405 11.74375 5 11 C5.66 11 6.32 11 7 11 C7 11.99 7 12.98 7 14 C7.66 14 8.32 14 9 14 C7.6095501 17.10442031 5.98428402 19.3656443 3.625 21.8125 C3.03976562 22.43769531 2.45453125 23.06289062 1.8515625 23.70703125 C1.24054688 24.13371094 0.62953125 24.56039062 0 25 C-2.0390625 24.63671875 -2.0390625 24.63671875 -4 24 C-4.99 24.33 -5.98 24.66 -7 25 C-9.19140625 24.9140625 -9.19140625 24.9140625 -11.5625 24.625 C-12.34753906 24.53476563 -13.13257813 24.44453125 -13.94140625 24.3515625 C-16 24 -16 24 -18 23 C-17.67 22.34 -17.34 21.68 -17 21 C-13.7 21 -10.4 21 -7 21 C-5.50859979 17.37802806 -4.2125738 13.72433382 -3 10 C-1.02 9.67 0.96 9.34 3 9 C3.40749675 4.74268432 3.40749675 4.74268432 1.5 1.125 C1.005 0.75375 0.51 0.3825 0 0 Z " transform="translate(273,150)" style="fill: #D8D6D6;"/><path d="M0 0 C2.375 0.375 2.375 0.375 4.375 2.375 C4.375 3.695 4.375 5.015 4.375 6.375 C4.76300781 5.88386719 5.15101563 5.39273438 5.55078125 4.88671875 C7.98711696 2.86774247 9.44430672 3.06601195 12.5625 3.1875 C13.46355469 3.21457031 14.36460937 3.24164063 15.29296875 3.26953125 C16.32357422 3.32173828 16.32357422 3.32173828 17.375 3.375 C17.375 3.705 17.375 4.035 17.375 4.375 C16.199375 4.375 15.02375 4.375 13.8125 4.375 C9.89285378 4.85031738 8.36682528 6.04123378 5.875 9.0625 C5.31683594 9.77792969 4.75867188 10.49335937 4.18359375 11.23046875 C1.37680407 14.55860598 -2.05290249 16.92556171 -5.625 19.375 C-6.67899717 16.21300849 -6.85945913 13.76039814 -6.9375 10.4375 C-6.99357422 8.87708984 -6.99357422 8.87708984 -7.05078125 7.28515625 C-6.41223479 2.92077908 -4.40579036 0.62939862 0 0 Z " transform="translate(284.625,105.625)" style="fill: #A942B3;"/><path d="M0 0 C0.33 0.66 0.66 1.32 1 2 C0.34 2 -0.32 2 -1 2 C-1.04125 3.03125 -1.0825 4.0625 -1.125 5.125 C-2.26927306 10.19249497 -4.14599296 11.63799386 -8 15 C-10.4375 14.1875 -10.4375 14.1875 -13 13 C-13.33 12.01 -13.66 11.02 -14 10 C-14 12.31 -14 14.62 -14 17 C-14.66 16.67 -15.32 16.34 -16 16 C-16.32839908 9.54148473 -15.80765641 6.27559915 -11.5 1.25 C-7.84107429 -1.79910476 -4.3627348 -0.88870524 0 0 Z " transform="translate(199,40)" style="fill: #BC73E0;"/><path d="M0 0 C0.99 0.66 1.98 1.32 3 2 C1.9068884 4.88183968 1.28843658 5.8485708 -1.5 7.3125 C-4.96020221 9.64813649 -5.17517086 12.02582324 -6 16 C-9.75 17.125 -9.75 17.125 -12 16 C-13.25697 11.51082142 -13.32374031 7.86330749 -11.6875 3.5 C-8.7583806 -0.83943615 -4.90760105 -0.57336329 0 0 Z " transform="translate(258,142)" style="fill: #A134B3;"/><path d="M0 0 C0.66 0 1.32 0 2 0 C2.33 1.65 2.66 3.3 3 5 C3.99 4.34 4.98 3.68 6 3 C6.3125 5.6875 6.3125 5.6875 6 9 C1.91944829 14.10068964 -4.41061744 19.76724246 -11 21 C-10.67 19.68 -10.34 18.36 -10 17 C-10.99 16.67 -11.98 16.34 -13 16 C-13.33 13.36 -13.66 10.72 -14 8 C-13.34 7.67 -12.68 7.34 -12 7 C-12 8.32 -12 9.64 -12 11 C-9.760165 11.95020416 -9.760165 11.95020416 -7 12 C-2.39122204 8.57021175 -1.16104997 5.38304985 0 0 Z " transform="translate(198,42)" style="fill: #B266E1;"/><path d="M0 0 C0.268125 0.639375 0.53625 1.27875 0.8125 1.9375 C1.88667752 4.33131686 1.88667752 4.33131686 5 5 C4.01 5 3.02 5 2 5 C1.8453125 6.7325 1.8453125 6.7325 1.6875 8.5 C1.13964887 13.01171519 -0.2774879 16.80605749 -2 21 C-2.66 21 -3.32 21 -4 21 C-4.33 20.34 -4.66 19.68 -5 19 C-7.15294651 24.28830549 -9.27933894 29.55123997 -11 35 C-12.16956792 31.58631139 -11.8243633 29.61158147 -10.671875 26.2265625 C-10.21361328 24.8653125 -10.21361328 24.8653125 -9.74609375 23.4765625 C-9.41738281 22.53554687 -9.08867187 21.59453125 -8.75 20.625 C-8.28013672 19.22507812 -8.28013672 19.22507812 -7.80078125 17.796875 C-6.16529863 13.00579314 -4.40963332 8.46800813 -2 4 C-1.608125 3.21625 -1.21625 2.4325 -0.8125 1.625 C-0.544375 1.08875 -0.27625 0.5525 0 0 Z " transform="translate(147,101)" style="fill: #C280E3;"/><path d="M0 0 C3.16115776 1.36983503 3.9927092 1.9890638 6 5 C7.27854661 10.41320135 7.25374212 14.82965043 5 20 C5.66 20 6.32 20 7 20 C7.66 18.68 8.32 17.36 9 16 C9 20.72316028 7.68310061 24.30882696 4.37109375 27.63671875 C1.27712328 29.91813132 -0.84098263 31.05935224 -4.74609375 30.859375 C-7.22411965 30.36728475 -9.59609456 29.77338761 -12 29 C-12 28.67 -12 28.34 -12 28 C-11.32453125 27.91363281 -10.6490625 27.82726562 -9.953125 27.73828125 C-4.11509424 26.88424967 -4.11509424 26.88424967 0.5625 23.5 C2.93514401 19.3736626 3.21440381 16.32369667 3.25 11.625 C3.270625 10.95210937 3.29125 10.27921875 3.3125 9.5859375 C3.34534737 5.41432206 2.94667952 3.02422371 0 0 Z " transform="translate(321,60)" style="fill: #CBC0C0;"/><path d="M0 0 C1.13115234 0.13728516 1.13115234 0.13728516 2.28515625 0.27734375 C2.47265625 3.08984375 2.47265625 3.08984375 2.28515625 6.27734375 C0.84765625 7.90234375 0.84765625 7.90234375 -0.71484375 9.27734375 C-1.42932018 11.38067266 -1.42932018 11.38067266 -1.71484375 13.27734375 C-4.77332223 13.82107326 -7.6025718 14.27734375 -10.71484375 14.27734375 C-10.71484375 13.61734375 -10.71484375 12.95734375 -10.71484375 12.27734375 C-12.69484375 12.27734375 -14.67484375 12.27734375 -16.71484375 12.27734375 C-16.38484375 11.61734375 -16.05484375 10.95734375 -15.71484375 10.27734375 C-14.84859375 10.25671875 -13.98234375 10.23609375 -13.08984375 10.21484375 C-8.41438532 8.9161053 -7.1003964 6.17216209 -4.5234375 2.2109375 C-2.71484375 0.27734375 -2.71484375 0.27734375 0 0 Z " transform="translate(296.71484375,115.72265625)" style="fill: #CCC2C6;"/><path d="M0 0 C1.20220203 3.53094302 0.79532349 6.12898982 0.0625 9.75 C-0.13214844 10.73484375 -0.32679688 11.7196875 -0.52734375 12.734375 C-0.68332031 13.48203125 -0.83929688 14.2296875 -1 15 C-1.99 15.33 -2.98 15.66 -4 16 C-4.33 12.7 -4.66 9.4 -5 6 C-6.98 6.33 -8.96 6.66 -11 7 C-11.33 5.35 -11.66 3.7 -12 2 C-7.72170329 -0.29194467 -4.74957752 -1.52664992 0 0 Z " transform="translate(160,98)" style="fill: #B770E3;"/><path d="M0 0 C1.32 0 2.64 0 4 0 C5.21561294 6.44803388 5.35820997 10.70235097 1.91015625 16.40625 C0.83469676 17.98357027 0.83469676 17.98357027 1 20 C1.66 20 2.32 20 3 20 C1.79157144 24.43090471 0.48331435 26.98112756 -3 30 C-3.99 29.67 -4.98 29.34 -6 29 C-2.41670112 17.75899132 -2.41670112 17.75899132 -0.25 13.8125 C1.48962472 9.89834439 1.43969138 6.22780172 1 2 C0.67 1.34 0.34 0.68 0 0 Z M3 18 C3.99 18.495 3.99 18.495 5 19 C4.01 19.495 4.01 19.495 3 20 C3 19.34 3 18.68 3 18 Z " transform="translate(78,135)" style="fill: #B78FB0;"/><path d="M0 0 C8.79590094 -0.76857387 8.79590094 -0.76857387 12.9375 1.875 C16.61771976 7.45109055 18.22635376 13.3285209 18 20 C19.65 19.01 21.3 18.02 23 17 C23.3125 19.6875 23.3125 19.6875 23 23 C20.827365 25.57285724 19.02006162 27.48996919 16 29 C16 27.68 16 26.36 16 25 C15.76931324 16.28004045 15.49867013 8.49867013 9 2 C6.79749008 1.53993654 6.79749008 1.53993654 4.375 1.375 C3.14910156 1.26285156 3.14910156 1.26285156 1.8984375 1.1484375 C1.27195313 1.09945312 0.64546875 1.05046875 0 1 C0 0.67 0 0.34 0 0 Z M14 29 C14.66 29.33 15.32 29.66 16 30 C15.34 30.66 14.68 31.32 14 32 C13.01 31.67 12.02 31.34 11 31 C11.99 30.34 12.98 29.68 14 29 Z " transform="translate(36,59)" style="fill: #C1BCC7;"/><path d="M0 0 C1.11375 0.639375 2.2275 1.27875 3.375 1.9375 C10.56922094 6.06751573 17.88792732 5.75396166 26 4 C26.33 4.99 26.66 5.98 27 7 C24.12273928 9.790071 22.5318497 10.93351879 18.5 11.4375 C14.71036681 10.96379585 13.11623385 10.1281597 10 8 C7.93399548 7.02705601 5.85847354 6.08280571 3.76953125 5.16015625 C1.60154382 3.73876052 0.96451086 2.36923436 0 0 Z " transform="translate(146,200)" style="fill: #E0D0D0;"/><path d="M0 0 C0.99 0.33 1.98 0.66 3 1 C2.125 5.75 2.125 5.75 1 8 C1.20625 9.27875 1.4125 10.5575 1.625 11.875 C2.00719421 14.6879494 2.12239593 15.72640909 0.9375 18.375 C-4.55666063 22.98300569 -11.2311616 22.21679554 -18 22 C-18 21.67 -18 21.34 -18 21 C-17.09636719 20.87882812 -16.19273437 20.75765625 -15.26171875 20.6328125 C-14.08222656 20.46523437 -12.90273437 20.29765625 -11.6875 20.125 C-10.51574219 19.96257812 -9.34398437 19.80015625 -8.13671875 19.6328125 C-4.85469105 19.17699379 -4.85469105 19.17699379 -2 17 C-1.41657647 13.54230809 -1.41657647 13.54230809 -2 10 C-3.86124923 8.01760473 -3.86124923 8.01760473 -6 7 C-4.02 4.69 -2.04 2.38 0 0 Z " transform="translate(173,184)" style="fill: #CAC8C7;"/><path d="M0 0 C3.25061904 0.43341587 4.95502089 1.44377611 7 4 C7 4.66 7 5.32 7 6 C8.32 6.33 9.64 6.66 11 7 C9.35889552 10.28220895 6.30677012 10.74570789 3 12 C2.01 12 1.02 12 0 12 C-1.17661508 8.32307787 -1.14475933 4.8361222 -1 1 C-0.67 0.67 -0.34 0.34 0 0 Z " transform="translate(148,78)" style="fill: #F2E7FC;"/><path d="M0 0 C1.4540625 0.0309375 1.4540625 0.0309375 2.9375 0.0625 C2.009375 0.4646875 2.009375 0.4646875 1.0625 0.875 C-1.3620233 2.01806848 -1.3620233 2.01806848 -3.0625 5.0625 C-3.5228764 8.26056665 -3.5228764 8.26056665 -3.6875 11.75 C-3.76226562 12.92949219 -3.83703125 14.10898438 -3.9140625 15.32421875 C-3.96304687 16.22785156 -4.01203125 17.13148437 -4.0625 18.0625 C-5.0525 18.0625 -6.0425 18.0625 -7.0625 18.0625 C-7.0625 16.4125 -7.0625 14.7625 -7.0625 13.0625 C-7.7225 13.0625 -8.3825 13.0625 -9.0625 13.0625 C-9.0625 14.3825 -9.0625 15.7025 -9.0625 17.0625 C-10.0525 17.0625 -11.0425 17.0625 -12.0625 17.0625 C-12.3925 15.4125 -12.7225 13.7625 -13.0625 12.0625 C-11.7425 11.7325 -10.4225 11.4025 -9.0625 11.0625 C-9.0625 9.0825 -9.0625 7.1025 -9.0625 5.0625 C-7.7425 5.7225 -6.4225 6.3825 -5.0625 7.0625 C-4.918125 6.093125 -4.77375 5.12375 -4.625 4.125 C-3.88189799 0.07922241 -3.88189799 0.07922241 0 0 Z " transform="translate(318.0625,59.9375)" style="fill: #C2859E;"/><path d="M0 0 C2.31 0.33 4.62 0.66 7 1 C7.36471664 7.44332724 7.36471664 7.44332724 5.8125 9.8125 C4 11 4 11 1.5625 11.75390625 C-1.71541018 13.34789001 -2.33916336 14.84156405 -3.8125 18.125 C-4.23144531 19.03507812 -4.65039062 19.94515625 -5.08203125 20.8828125 C-5.38496094 21.58148438 -5.68789063 22.28015625 -6 23 C-8.97 23 -11.94 23 -15 23 C-15 22.67 -15 22.34 -15 22 C-11.04 21.505 -11.04 21.505 -7 21 C-5.50859979 17.37802806 -4.2125738 13.72433382 -3 10 C-1.02 9.67 0.96 9.34 3 9 C3.40749675 4.74268432 3.40749675 4.74268432 1.5 1.125 C1.005 0.75375 0.51 0.3825 0 0 Z " transform="translate(273,150)" style="fill: #CAA9A8;"/><path d="M0 0 C0.66 1.65 1.32 3.3 2 5 C0.68 5.99 -0.64 6.98 -2 8 C-2 7.01 -2 6.02 -2 5 C-1.34 5 -0.68 5 0 5 C0 4.01 0 3.02 0 2 C-9.72807132 3.8229539 -9.72807132 3.8229539 -17 10 C-17.66 10 -18.32 10 -19 10 C-18.67 14.95 -18.34 19.9 -18 25 C-18.66 25 -19.32 25 -20 25 C-21.05539599 10.89454877 -21.05539599 10.89454877 -18.72265625 6.70703125 C-16.88861393 5.08924788 -15.21191144 4.03918103 -13 3 C-12.31679687 2.66871094 -11.63359375 2.33742187 -10.9296875 1.99609375 C-7.23924982 0.43151656 -4.05113345 -0.37979376 0 0 Z " transform="translate(219,159)" style="fill: #AE6CD9;"/><path d="M0 0 C0.375 2.125 0.375 2.125 0 5 C-1.79340357 7.23913252 -3.83452663 9.12454539 -6 11 C-6.99 10.67 -7.98 10.34 -9 10 C-9.36103152 3.6217765 -9.36103152 3.6217765 -7.875 1.0625 C-5.214973 -0.44484863 -2.99793795 -0.19986253 0 0 Z " transform="translate(197,44)" style="fill: #F2E8FB;"/><path d="M0 0 C0 1.33333333 0 2.66666667 0 4 C0.66 4.33 1.32 4.66 2 5 C0.68 6.65 -0.64 8.3 -2 10 C-5.73487777 9.5020163 -7.81237635 9.12508244 -11 7 C-12.98799818 6.29835358 -14.98698517 5.62627128 -17 5 C-15 4 -15 4 -11.3125 4.1875 C-6.55426341 4.28318666 -3.90618859 2.60412573 0 0 Z " transform="translate(227,195)" style="fill: #D6D6D6;"/><path d="M0 0 C2.1060986 0.25537572 4.20988754 0.52985374 6.3125 0.8125 C7.48425781 0.96332031 8.65601562 1.11414063 9.86328125 1.26953125 C12.99309085 1.99839102 14.20893073 2.38128862 16 5 C16 7.5 16 7.5 15 10 C12.10451959 12.20970874 10.66842255 13 7 13 C6.67 13.66 6.34 14.32 6 15 C2.62537285 14.45276317 0.91765 13.9451 -2 12 C-1.32453125 11.95101562 -0.6490625 11.90203125 0.046875 11.8515625 C0.93890625 11.77679688 1.8309375 11.70203125 2.75 11.625 C3.63171875 11.55539063 4.5134375 11.48578125 5.421875 11.4140625 C7.99066382 11.00149945 9.75841015 10.28839043 12 9 C12 7.02 12 5.04 12 3 C10.82630859 2.92652344 10.82630859 2.92652344 9.62890625 2.8515625 C8.11103516 2.73941406 8.11103516 2.73941406 6.5625 2.625 C5.04849609 2.52058594 5.04849609 2.52058594 3.50390625 2.4140625 C2.67761719 2.27742187 1.85132812 2.14078125 1 2 C0.67 1.34 0.34 0.68 0 0 Z " transform="translate(106,181)" style="fill: #D3B3B8;"/><path d="M0 0 C1.134375 0.020625 2.26875 0.04125 3.4375 0.0625 C3.4375 2.3725 3.4375 4.6825 3.4375 7.0625 C4.4275 7.3925 5.4175 7.7225 6.4375 8.0625 C5.15875 8.206875 3.88 8.35125 2.5625 8.5 C0.18057106 8.76892746 -1.40702691 8.98476346 -3.5625 10.0625 C-3.75662181 8.58418779 -3.94262131 7.10480684 -4.125 5.625 C-4.22941406 4.80128906 -4.33382812 3.97757813 -4.44140625 3.12890625 C-4.48136719 2.44699219 -4.52132812 1.76507813 -4.5625 1.0625 C-3.5625 0.0625 -3.5625 0.0625 0 0 Z " transform="translate(106.5625,164.9375)" style="fill: #B2419F;"/><path d="M0 0 C0.99 0.33 1.98 0.66 3 1 C2.91433603 3.912575 2.42089045 5.56798024 0.375 7.66796875 C-1.38391375 9.16091772 -3.16313019 10.60436262 -5 12 C-5.33 11.34 -5.66 10.68 -6 10 C-6.99 10.33 -7.98 10.66 -9 11 C-10.35479692 10.99463447 -11.70981746 10.95085136 -13.0625 10.875 C-14.361875 10.91625 -15.66125 10.9575 -17 11 C-17.99 12.485 -17.99 12.485 -19 14 C-18.67 14.99 -18.34 15.98 -18 17 C-18.99 16.67 -19.98 16.34 -21 16 C-21.125 13.625 -21.125 13.625 -21 11 C-18.17344925 8.17344925 -16.06594919 8.66386483 -12.125 8.5 C-6.21826739 8.40366186 -6.21826739 8.40366186 -1 6 C-0.18415432 2.94091587 -0.18415432 2.94091587 0 0 Z " transform="translate(124,164)" style="fill: #C5A6B5;"/><path d="M0 0 C1.20272819 2.40545638 1.10071472 3.94996953 1.0625 6.625 C1.05347656 7.44226563 1.04445312 8.25953125 1.03515625 9.1015625 C1.02355469 9.72804687 1.01195312 10.35453125 1 11 C2.65 11 4.3 11 6 11 C6.66 8.69 7.32 6.38 8 4 C9.32 4 10.64 4 12 4 C10.125 9.875 10.125 9.875 9 11 C8.76807135 12.51469448 8.58784762 14.03754562 8.4375 15.5625 C8.35371094 16.38878906 8.26992187 17.21507812 8.18359375 18.06640625 C8.12300781 18.70449219 8.06242188 19.34257812 8 20 C7.34 20 6.68 20 6 20 C6 17.69 6 15.38 6 13 C3.03 12.505 3.03 12.505 0 12 C-1.29449495 8.11651516 -1.13203312 5.09302664 -1 1 C-0.67 0.67 -0.34 0.34 0 0 Z " transform="translate(245,147)" style="fill: #D7BBD1;"/><path d="M0 0 C0.73283203 0.00064453 1.46566406 0.00128906 2.22070312 0.00195312 C7.65625 0.046875 7.65625 0.046875 9.9375 1.1875 C9.9375 3.1675 9.9375 5.1475 9.9375 7.1875 C8.2875 7.8475 6.6375 8.5075 4.9375 9.1875 C4.9375 6.5475 4.9375 3.9075 4.9375 1.1875 C-2.9825 1.6825 -2.9825 1.6825 -11.0625 2.1875 C-7.30490815 -0.31756123 -4.34222423 -0.0729463 0 0 Z " transform="translate(114.0625,162.8125)" style="fill: #A34DC5;"/><path d="M0 0 C-0.33 1.65 -0.66 3.3 -1 5 C-5.41062136 6.0257259 -7.92630576 6.03684712 -12 4 C-12 3.34 -12 2.68 -12 2 C-7.8794254 0.00214565 -4.54805635 -0.17835515 0 0 Z " transform="translate(43,71)" style="fill: #B3AEB5;"/><path d="M0 0 C-1.16917969 0.44730469 -2.33835937 0.89460938 -3.54296875 1.35546875 C-5.0914151 1.96546276 -6.6395774 2.57617815 -8.1875 3.1875 C-9.34088867 3.62545898 -9.34088867 3.62545898 -10.51757812 4.07226562 C-15.30393631 5.98270044 -18.68059781 7.89026396 -22 12 C-22.41986946 14.71163778 -22.41986946 14.71163778 -22 17 C-22.66 16.67 -23.32 16.34 -24 16 C-24.4871831 13.07690139 -24.66459639 10.94033319 -22.8984375 8.44140625 C-17.3362856 3.16695186 -7.66049959 -2.31970696 0 0 Z " transform="translate(33,62)" style="fill: #D87C9E;"/><path d="M0 0 C-2.32386834 2.73396275 -5.09840183 4.30097479 -8.22265625 6.01171875 C-9.78908311 6.88272094 -11.30594486 7.84160891 -12.8125 8.8125 C-13.534375 9.204375 -14.25625 9.59625 -15 10 C-15.66 9.67 -16.32 9.34 -17 9 C-15.61211198 7.69979989 -14.21430742 6.4101807 -12.8125 5.125 C-12.03519531 4.40570313 -11.25789063 3.68640625 -10.45703125 2.9453125 C-6.83007699 0.07373345 -4.51530293 -1.50510098 0 0 Z " transform="translate(58,120)" style="fill: #DDDDDD;"/><path d="M0 0 C3.30919649 1.55726894 4.91421663 4.11369949 7.125 7 C6.135 8.485 6.135 8.485 5.125 10 C4.465 8.68 3.805 7.36 3.125 6 C0.815 6.33 -1.495 6.66 -3.875 7 C-4.205 5.35 -4.535 3.7 -4.875 2 C-1.875 0 -1.875 0 0 0 Z " transform="translate(155.875,92)" style="fill: #EBDFFD;"/><path d="M0 0 C0.33 0 0.66 0 1 0 C1 4.29 1 8.58 1 13 C1.66 13.33 2.32 13.66 3 14 C0.4837822 16.60608273 -2.05134359 18.89381685 -5 21 C-5 20.34 -5 19.68 -5 19 C-7.97 19 -10.94 19 -14 19 C-14 18.67 -14 18.34 -14 18 C-13.31292969 17.91363281 -12.62585937 17.82726562 -11.91796875 17.73828125 C-6.43646729 16.98526487 -6.43646729 16.98526487 -1.9375 14.0625 C-0.52404714 9.44522066 -0.24410595 4.80636205 0 0 Z " transform="translate(51,71)" style="fill: #B7A6C6;"/><path d="M0 0 C1.8125 0.125 1.8125 0.125 4 1 C6.3637042 4.34178869 7.26240342 6.96965046 6.9375 11 C6.20500962 15.05986691 4.7951638 17.90265633 2 21 C-1.0625 22.0625 -1.0625 22.0625 -4 22 C-5.875 20.5625 -5.875 20.5625 -7 19 C-5.741875 19.103125 -4.48375 19.20625 -3.1875 19.3125 C-1.01007279 19.35943819 -1.01007279 19.35943819 1 19 C3.63984964 16.27765506 3.95290922 14.36327175 4.4375 10.625 C3.89356006 6.11806905 2.46435536 3.77354415 0 0 Z " transform="translate(302,110)" style="fill: #DCBEBE;"/><path d="M0 0 C-0.33 0.33 -0.66 0.66 -1 1 C1.97 1.33 4.94 1.66 8 2 C8.33 3.32 8.66 4.64 9 6 C7.5625 8.25 7.5625 8.25 6 10 C5.34 9.67 4.68 9.34 4 9 C4.33 7.35 4.66 5.7 5 4 C1.7 4 -1.6 4 -5 4 C-5 2.68 -5 1.36 -5 0 C-3 -1 -3 -1 0 0 Z " transform="translate(214,171)" style="fill: #C198B7;"/><path d="M0 0 C0.66 0.33 1.32 0.66 2 1 C1.566875 1.49886719 1.13375 1.99773437 0.6875 2.51171875 C-4.5121587 9.21590833 -4.69225654 14.7057411 -4 23 C-6 21 -6 21 -6.1953125 17.9609375 C-6.17210937 16.77757812 -6.14890625 15.59421875 -6.125 14.375 C-6.10695312 13.18648437 -6.08890625 11.99796875 -6.0703125 10.7734375 C-6.04710937 9.85820312 -6.02390625 8.94296875 -6 8 C-5.34 8 -4.68 8 -4 8 C-3.896875 7.236875 -3.79375 6.47375 -3.6875 5.6875 C-2.95635961 2.82940576 -2.23048087 1.84257115 0 0 Z " transform="translate(150,177)" style="fill: #D382B1;"/><path d="M0 0 C0.66 0.33 1.32 0.66 2 1 C1.67 1.66 1.34 2.32 1 3 C0.01 3 -0.98 3 -2 3 C-2.66 4.65 -3.32 6.3 -4 8 C-4.66 8 -5.32 8 -6 8 C-6 12.29 -6 16.58 -6 21 C-8.55573817 18.44426183 -8.35498461 17.30301573 -8.4375 13.75 C-8.37690887 9.89741384 -8.16650199 7.44665 -5.6875 4.4375 C-3 2 -3 2 0 0 Z " transform="translate(101,165)" style="fill: #DA82A3;"/><path d="M0 0 C-0.33 3.96 -0.66 7.92 -1 12 C-1.99 12.33 -2.98 12.66 -4 13 C-4.05391993 11.20866022 -4.09275571 9.41686101 -4.125 7.625 C-4.14820313 6.62726563 -4.17140625 5.62953125 -4.1953125 4.6015625 C-3.95884236 1.45178018 -3.36596185 0 0 0 Z " transform="translate(160,101)" style="fill: #B465DF;"/><path d="M0 0 C3 0.1875 3 0.1875 5 1.1875 C5.625 4.25 5.625 4.25 6 7.1875 C4.35 8.5075 2.7 9.8275 1 11.1875 C1.66 8.2175 2.32 5.2475 3 2.1875 C0.36 2.1875 -2.28 2.1875 -5 2.1875 C-3 0.1875 -3 0.1875 0 0 Z " transform="translate(228,182.8125)" style="fill: #E18F94;"/><path d="M0 0 C1.32 0.33 2.64 0.66 4 1 C4.33 1.66 4.66 2.32 5 3 C4.27425781 3.07089844 3.54851562 3.14179687 2.80078125 3.21484375 C-0.78284504 4.21945865 -2.27478745 5.87328223 -4.8125 8.5625 C-5.60269531 9.38878906 -6.39289063 10.21507813 -7.20703125 11.06640625 C-8.09455078 12.02353516 -8.09455078 12.02353516 -9 13 C-9.66 12.67 -10.32 12.34 -11 12 C-7.37 8.04 -3.74 4.08 0 0 Z " transform="translate(186,78)" style="fill: #A275FF;"/><path d="M0 0 C0.66 0.33 1.32 0.66 2 1 C1.2575 1.680625 1.2575 1.680625 0.5 2.375 C-1.22609337 3.87635519 -1.22609337 3.87635519 -1 6 C-0.4225 5.855625 0.155 5.71125 0.75 5.5625 C2.83333333 5.04166667 4.91666667 4.52083333 7 4 C7 4.66 7 5.32 7 6 C1.82421875 9.22265625 1.82421875 9.22265625 0 10 C-0.99 9.67 -1.98 9.34 -3 9 C-3.33 7.02 -3.66 5.04 -4 3 C-2.68 2.01 -1.36 1.02 0 0 Z " transform="translate(216,181)" style="fill: #C98F97;"/><path d="M0 0 C-0.11509661 1.41750563 -0.24253658 2.83401169 -0.375 4.25 C-0.44460937 5.03890625 -0.51421875 5.8278125 -0.5859375 6.640625 C-1.01507113 9.085877 -1.78600638 10.84836903 -3 13 C-3.99 13 -4.98 13 -6 13 C-5.55005243 11.20620902 -5.08975857 9.41501072 -4.625 7.625 C-4.36976563 6.62726563 -4.11453125 5.62953125 -3.8515625 4.6015625 C-2.34534535 0 -2.34534535 0 0 0 Z " transform="translate(143,119)" style="fill: #B665DD;"/><path d="M0 0 C0.66 0.33 1.32 0.66 2 1 C2 2.32 2 3.64 2 5 C2.38800781 4.50886719 2.77601563 4.01773438 3.17578125 3.51171875 C5.61211696 1.49274247 7.06930672 1.69101195 10.1875 1.8125 C11.08855469 1.83957031 11.98960937 1.86664063 12.91796875 1.89453125 C13.94857422 1.94673828 13.94857422 1.94673828 15 2 C15 2.33 15 2.66 15 3 C13.845 3.020625 12.69 3.04125 11.5 3.0625 C5.953943 3.69633509 2.77487367 7.15484942 -1 11 C-1.33 10.34 -1.66 9.68 -2 9 C-1.34 8.01 -0.68 7.02 0 6 C0.16699232 2.87478167 0.16699232 2.87478167 0 0 Z " transform="translate(287,107)" style="fill: #C57CB0;"/><path d="M0 0 C2 1 2 1 3.109375 3.22265625 C5.1717504 9.65401111 4.6713227 16.82256626 2 23 C0.54678144 20.09356287 0.94498712 17.54794506 1 14.3125 C1.04037015 9.40248107 0.91779661 4.8184322 0 0 Z " transform="translate(205,22)" style="fill: #D19FEA;"/><path d="M0 0 C0.99 0.495 0.99 0.495 2 1 C1.01 1.495 1.01 1.495 0 2 C0 1.34 0 0.68 0 0 Z M0 2 C-1.20842856 6.43090471 -2.51668565 8.98112756 -6 12 C-6.99 11.67 -7.98 11.34 -9 11 C-8.67 10.34 -8.34 9.68 -8 9 C-7.34 9 -6.68 9 -6 9 C-5.67 7.02 -5.34 5.04 -5 3 C-2 2 -2 2 0 2 Z " transform="translate(81,153)" style="fill: #C3BFBF;"/><path d="M0 0 C-0.33 2.31 -0.66 4.62 -1 7 C-4.75 8.125 -4.75 8.125 -7 7 C-7 6.01 -7 5.02 -7 4 C-2.65714286 0 -2.65714286 0 0 0 Z " transform="translate(253,151)" style="fill: #B34CA9;"/><path d="M0 0 C1.86610926 2.79916389 2.68785383 4.81938269 3.625 8 C3.88539063 8.86625 4.14578125 9.7325 4.4140625 10.625 C5 13 5 13 5 16 C4.34 16 3.68 16 3 16 C2.49166409 14.75336669 1.99368855 13.50250613 1.5 12.25 C1.2215625 11.55390625 0.943125 10.8578125 0.65625 10.140625 C0 8 0 8 0 4 C-0.99 3.67 -1.98 3.34 -3 3 C-2.01 3 -1.02 3 0 3 C0 2.01 0 1.02 0 0 Z " transform="translate(140,78)" style="fill: #DDC7FA;"/><path d="M0 0 C0.66 0.33 1.32 0.66 2 1 C1.34 3.97 0.68 6.94 0 10 C-0.66 9.01 -1.32 8.02 -2 7 C-3.485 7.99 -3.485 7.99 -5 9 C-5 7.02 -5 5.04 -5 3 C-3.68 3 -2.36 3 -1 3 C-0.67 2.01 -0.34 1.02 0 0 Z " transform="translate(205,39)" style="fill: #B76FE3;"/><path d="M0 0 C2.3125 3.0625 2.3125 3.0625 4 6 C1.4988252 5.55336164 0.17243054 5.15395584 -1.75 3.4375 C-5.16348916 1.2566597 -7.99872124 1.79993606 -12 2 C-7.72397237 -0.21173843 -4.72705569 -1.72941062 0 0 Z " transform="translate(23,78)" style="fill: #DA97A0;"/><path d="M0 0 C0.66 0.66 1.32 1.32 2 2 C1.38511719 2.03738281 0.77023437 2.07476562 0.13671875 2.11328125 C-1.07564453 2.21189453 -1.07564453 2.21189453 -2.3125 2.3125 C-3.11300781 2.37050781 -3.91351563 2.42851563 -4.73828125 2.48828125 C-7.43304787 3.09797802 -8.36615101 3.79430386 -10 6 C-10.73041853 9.61023099 -10.73041853 9.61023099 -11 13 C-11.33 13 -11.66 13 -12 13 C-12.08131463 11.56344146 -12.13933559 10.1255517 -12.1875 8.6875 C-12.22230469 7.88699219 -12.25710938 7.08648437 -12.29296875 6.26171875 C-12 4 -12 4 -10.67578125 2.26953125 C-7.3172462 -0.27481348 -4.06417712 -0.25941556 0 0 Z " transform="translate(305,61)" style="fill: #B366C9;"/><path d="M0 0 C0.33 0.66 0.66 1.32 1 2 C0.67 2.66 0.34 3.32 0 4 C0.99 4 1.98 4 3 4 C2.88590407 5.45922693 2.75834456 6.91740598 2.625 8.375 C2.55539063 9.18710938 2.48578125 9.99921875 2.4140625 10.8359375 C2 13 2 13 0 15 C0 12.03 0 9.06 0 6 C-1.485 6.99 -1.485 6.99 -3 8 C-2.45276317 4.62537285 -1.9451 2.91765 0 0 Z " transform="translate(187,59)" style="fill: #CC98EA;"/><path d="M0 0 C2.80570925 1.1052794 5.52976828 2.25469629 8.25 3.5625 C12.37539764 5.36565394 16.5444276 5.70700318 21 6 C20.67 6.99 20.34 7.98 20 9 C12.60621271 7.4842736 5.94671891 5.86231722 0 1 C0 0.67 0 0.34 0 0 Z " transform="translate(25,84)" style="fill: #D6CDD2;"/><path d="M0 0 C0.66 0 1.32 0 2 0 C2 3.3 2 6.6 2 10 C-4.07877934 13.24201565 -9.18401613 13.33278764 -16 13 C-16 12.67 -16 12.34 -16 12 C-15.09636719 11.87882813 -14.19273437 11.75765625 -13.26171875 11.6328125 C-12.08222656 11.46523437 -10.90273437 11.29765625 -9.6875 11.125 C-8.51574219 10.96257812 -7.34398437 10.80015625 -6.13671875 10.6328125 C-2.85469105 10.17699379 -2.85469105 10.17699379 0 8 C0.36297936 6.02252878 0.36297936 6.02252878 0.1875 3.875 C0.125625 2.59625 0.06375 1.3175 0 0 Z " transform="translate(171,193)" style="fill: #D0A1A3;"/><path d="M0 0 C0.33 1.32 0.66 2.64 1 4 C0.29488281 3.85691406 -0.41023438 3.71382812 -1.13671875 3.56640625 C-4.02411601 2.99522944 -6.91609386 2.46094689 -9.8125 1.9375 C-11.27623047 1.67259766 -11.27623047 1.67259766 -12.76953125 1.40234375 C-13.50558594 1.26957031 -14.24164063 1.13679687 -15 1 C-15 0.67 -15 0.34 -15 0 C-9.65370398 -1.0024305 -5.37625234 -0.84888195 0 0 Z " transform="translate(71,141)" style="fill: #D3B6C9;"/><path d="M0 0 C1.2065625 0.0309375 1.2065625 0.0309375 2.4375 0.0625 C1.48632866 1.2350131 0.52632991 2.40037015 -0.4375 3.5625 C-0.97117187 4.2121875 -1.50484375 4.861875 -2.0546875 5.53125 C-2.55226563 6.0365625 -3.04984375 6.541875 -3.5625 7.0625 C-4.2225 7.0625 -4.8825 7.0625 -5.5625 7.0625 C-5.5625 6.4025 -5.5625 5.7425 -5.5625 5.0625 C-6.5525 4.7325 -7.5425 4.4025 -8.5625 4.0625 C-7.758125 3.588125 -6.95375 3.11375 -6.125 2.625 C-1.89583333 0.04623984 -1.89583333 0.04623984 0 0 Z " transform="translate(262.5625,145.9375)" style="fill: #B6499E;"/><path d="M0 0 C0.33 0 0.66 0 1 0 C1.3125 2.6875 1.3125 2.6875 1 6 C-1.172635 8.57285724 -2.97993838 10.48996919 -6 12 C-4.84826645 9.53199953 -3.95216435 7.95216435 -2 6 C-1.28591666 4.01643517 -0.61382258 2.01684563 0 0 Z M-8 12 C-7.34 12.33 -6.68 12.66 -6 13 C-6.66 13.66 -7.32 14.32 -8 15 C-8.99 14.67 -9.98 14.34 -11 14 C-10.01 13.34 -9.02 12.68 -8 12 Z " transform="translate(58,76)" style="fill: #D3D4D3;"/><path d="M0 0 C0.66 0 1.32 0 2 0 C3 3 3 3 2.375 5.4375 C0.73408653 8.49556601 -1.19399414 10.00625899 -4 12 C-4.66 11.67 -5.32 11.34 -6 11 C-5.38125 10.484375 -4.7625 9.96875 -4.125 9.4375 C-1.52523258 6.45541385 -0.88050877 3.81553799 0 0 Z " transform="translate(198,42)" style="fill: #9D65F8;"/><path d="M0 0 C2 3 2 3 1.625 6.1875 C1.41875 7.115625 1.2125 8.04375 1 9 C0.01 9 -0.98 9 -2 9 C-2.33 9.66 -2.66 10.32 -3 11 C-3.66 11 -4.32 11 -5 11 C-3.77472971 6.94718288 -2.30119506 3.55639236 0 0 Z " transform="translate(152,25)" style="fill: #C280E3;"/><path d="M0 0 C0 0.33 0 0.66 0 1 C-1.0725 1.226875 -2.145 1.45375 -3.25 1.6875 C-7.45192071 3.15817225 -8.72735318 4.24139179 -11 8 C-11.78946609 10.68507329 -11.78946609 10.68507329 -12 13 C-12.33 13 -12.66 13 -13 13 C-12.66176471 5.08529412 -12.66176471 5.08529412 -10.4375 1.4375 C-6.84290308 -0.68239049 -4.13282995 -0.275522 0 0 Z " transform="translate(258,142)" style="fill: #A44ECA;"/><path d="M0 0 C0 3 0 3 -1.08203125 4.67578125 C-3.93273182 6.64398388 -6.27197647 6.28895119 -9.6875 6.1875 C-11.45673828 6.14689453 -11.45673828 6.14689453 -13.26171875 6.10546875 C-14.61716797 6.05326172 -14.61716797 6.05326172 -16 6 C-16.33 5.34 -16.66 4.68 -17 4 C-16.35933594 4.04640625 -15.71867188 4.0928125 -15.05859375 4.140625 C-8.7085219 4.40560564 -5.22455383 3.63447223 0 0 Z " transform="translate(227,195)" style="fill: #CFC1C0;"/><path d="M0 0 C0.33 0 0.66 0 1 0 C1 3.63 1 7.26 1 11 C0.01 11.33 -0.98 11.66 -2 12 C-1.44687265 7.97007218 -0.8441938 3.97977076 0 0 Z M-10 18 C-9.01 18.495 -9.01 18.495 -8 19 C-8.99 19.495 -8.99 19.495 -10 20 C-10 19.34 -10 18.68 -10 18 Z " transform="translate(333,73)" style="fill: #E3E4E3;"/><path d="M0 0 C0.99 0.33 1.98 0.66 3 1 C2.91433603 3.912575 2.42089045 5.56798024 0.375 7.66796875 C-1.38391375 9.16091772 -3.16313019 10.60436262 -5 12 C-5.33 11.34 -5.66 10.68 -6 10 C-4.36587557 8.29159719 -3.13093906 7.06546953 -1 6 C-0.34227572 2.97065509 -0.34227572 2.97065509 0 0 Z " transform="translate(124,164)" style="fill: #CCC0CF;"/><path d="M0 0 C0.66 0.66 1.32 1.32 2 2 C-0.1772135 7.20112114 -2.60708214 9.68090651 -7 13 C-7 9.42808296 -6.41190492 9.02077328 -4.0625 6.5 C-1.92527675 4.19604302 -1.01747885 3.05243655 0 0 Z " transform="translate(83,157)" style="fill: #DFDFDF;"/><path d="M0 0 C2.475 0.99 2.475 0.99 5 2 C5 2.66 5 3.32 5 4 C5.66 4 6.32 4 7 4 C7 6.31 7 8.62 7 11 C6.34 10.67 5.68 10.34 5 10 C4.375 6.9375 4.375 6.9375 4 4 C3.34 4 2.68 4 2 4 C1.34 2.68 0.68 1.36 0 0 Z " transform="translate(165,173)" style="fill: #CDC3D1;"/><path d="M0 0 C1.32 0.33 2.64 0.66 4 1 C2.9790625 2.051875 2.9790625 2.051875 1.9375 3.125 C-0.35289652 5.8829449 -0.35289652 5.8829449 0.25 9.3125 C0.4975 10.199375 0.745 11.08625 1 12 C-0.5 10.875 -0.5 10.875 -2 9 C-2.42478586 4.92205575 -2.31282587 3.46923881 0 0 Z " transform="translate(52,143)" style="fill: #EA8388;"/><path d="M0 0 C0.66 0.33 1.32 0.66 2 1 C0.88121617 2.17262904 -0.24523051 3.33795138 -1.375 4.5 C-2.00148438 5.1496875 -2.62796875 5.799375 -3.2734375 6.46875 C-5 8 -5 8 -7 8 C-7 9.98 -7 11.96 -7 14 C-7.33 14 -7.66 14 -8 14 C-8.5 10.9375 -8.5 10.9375 -8 7 C-5.61176729 4.28705144 -2.90748288 2.13518274 0 0 Z " transform="translate(34,113)" style="fill: #EC8D90;"/><path d="M0 0 C0.66 0.66 1.32 1.32 2 2 C-0.3896798 7.79145929 -2.45408806 10.97495712 -8 14 C-8.33 13.34 -8.66 12.68 -9 12 C-8.030625 11.4225 -7.06125 10.845 -6.0625 10.25 C-2.93549496 8.38225805 -2.93549496 8.38225805 -2.25 6 C-2.1675 5.34 -2.085 4.68 -2 4 C-1.36345658 2.6520257 -0.70394612 1.31403276 0 0 Z " transform="translate(329,76)" style="fill: #CBCBCB;"/><path d="M0 0 C1.32 0 2.64 0 4 0 C4.22245393 1.60226955 4.42746669 3.20696767 4.625 4.8125 C4.74101563 5.70582031 4.85703125 6.59914062 4.9765625 7.51953125 C5 10 5 10 3 13 C2.80083984 11.84371094 2.80083984 11.84371094 2.59765625 10.6640625 C2.42105469 9.66117188 2.24445313 8.65828125 2.0625 7.625 C1.88847656 6.62726563 1.71445313 5.62953125 1.53515625 4.6015625 C1.12287938 2.03090344 1.12287938 2.03090344 0 0 Z " transform="translate(78,135)" style="fill: #CCC5CF;"/><path d="M0 0 C2 3 2 3 3 6 C1.59554165 8.2636564 -0.1967913 10.0208685 -2 12 C-2.99 11.67 -3.98 11.34 -5 11 C-4.360625 10.484375 -3.72125 9.96875 -3.0625 9.4375 C-0.44208319 6.34064377 -0.30610183 3.97932377 0 0 Z " transform="translate(169,180)" style="fill: #BAAFB7;"/><path d="M0 0 C0.66 0.33 1.32 0.66 2 1 C0.87895467 2.31587941 -0.24696965 3.62760353 -1.375 4.9375 C-2.00148438 5.66839844 -2.62796875 6.39929688 -3.2734375 7.15234375 C-5 9 -5 9 -7 10 C-5.6062718 5.56541027 -3.39417765 3.12621626 0 0 Z " transform="translate(58,84)" style="fill: #E1E1E1;"/><path d="M0 0 C-3.2837938 2.48772258 -4.61198583 3.03180444 -8.8125 2.6875 C-9.864375 2.460625 -10.91625 2.23375 -12 2 C-12 1.67 -12 1.34 -12 1 C-10.56496445 0.63597631 -9.12683494 0.28413409 -7.6875 -0.0625 C-6.88699219 -0.25972656 -6.08648437 -0.45695313 -5.26171875 -0.66015625 C-3 -1 -3 -1 0 0 Z " transform="translate(172,205)" style="fill: #C9C9C8;"/><path d="M0 0 C0.66 0 1.32 0 2 0 C1.34 3.3 0.68 6.6 0 10 C-0.66 10 -1.32 10 -2 10 C-2.33 10.99 -2.66 11.98 -3 13 C-2.835 12.071875 -2.67 11.14375 -2.5 10.1875 C-1.92251612 7.04378647 -1.92251612 7.04378647 -2 4 C-1 1.8125 -1 1.8125 0 0 Z " transform="translate(85,147)" style="fill: #D5D5D5;"/><path d="M0 0 C2.31 0.33 4.62 0.66 7 1 C7 3.31 7 5.62 7 8 C6.01 8.495 6.01 8.495 5 9 C5 7.02 5 5.04 5 3 C2.525 2.01 2.525 2.01 0 1 C0 0.67 0 0.34 0 0 Z " transform="translate(273,150)" style="fill: #D6C8C9;"/><path d="M0 0 C0.268125 0.639375 0.53625 1.27875 0.8125 1.9375 C1.88667752 4.33131686 1.88667752 4.33131686 5 5 C4.01 5 3.02 5 2 5 C2 6.65 2 8.3 2 10 C1.67 10 1.34 10 1 10 C1 8.35 1 6.7 1 5 C-1.33075929 5.95865509 -1.33075929 5.95865509 -3 9 C-2.44271087 5.65626525 -1.64826111 2.96687001 0 0 Z " transform="translate(147,101)" style="fill: #DDB7EF;"/><path d="M0 0 C1.32 1.32 2.64 2.64 4 4 C3.67 4.99 3.34 5.98 3 7 C2.34 6.34 1.68 5.68 1 5 C0.01 6.485 0.01 6.485 -1 8 C-1.66 8 -2.32 8 -3 8 C-1.125 2.25 -1.125 2.25 0 0 Z " transform="translate(115,98)" style="fill: #AC84FF;"/><path d="M0 0 C8.77578475 -0.76681614 8.77578475 -0.76681614 11.77734375 1.11328125 C13.125 2.5 13.125 2.5 15 5 C14.01 5 13.02 5 12 5 C11.53980469 4.51917969 11.07960938 4.03835937 10.60546875 3.54296875 C8.51965133 1.53835103 7.15983533 1.51882865 4.3125 1.3125 C3.10013672 1.21388672 3.10013672 1.21388672 1.86328125 1.11328125 C0.94095703 1.05720703 0.94095703 1.05720703 0 1 C0 0.67 0 0.34 0 0 Z " transform="translate(36,59)" style="fill: #D7CAE3;"/><path d="M0 0 C0.99 0.33 1.98 0.66 3 1 C2.9375 3.25 2.9375 3.25 2 6 C-0.2308475 7.67849824 -2.47405906 8.75999263 -5 10 C-5 9.34 -5 8.68 -5 8 C-4.175 7.38125 -3.35 6.7625 -2.5 6.125 C-1.2625 5.073125 -1.2625 5.073125 0 4 C0 2.68 0 1.36 0 0 Z " transform="translate(220,160)" style="fill: #CBBAD2;"/><path d="M0 0 C0.66 0.33 1.32 0.66 2 1 C0.90220176 2.15193623 -0.20349446 3.29634937 -1.3125 4.4375 C-1.92738281 5.07558594 -2.54226562 5.71367188 -3.17578125 6.37109375 C-5 8 -5 8 -8 9 C-6.4169423 4.7257442 -3.49431596 2.73468206 0 0 Z " transform="translate(127,93)" style="fill: #E1D2FF;"/><path d="M0 0 C0.66 0.33 1.32 0.66 2 1 C1.38511719 1.59748047 1.38511719 1.59748047 0.7578125 2.20703125 C0.21898437 2.73683594 -0.31984375 3.26664062 -0.875 3.8125 C-1.40867188 4.33457031 -1.94234375 4.85664062 -2.4921875 5.39453125 C-4.20776561 7.13259904 -4.20776561 7.13259904 -6 10 C-6.33 8.68 -6.66 7.36 -7 6 C-4.69 4.02 -2.38 2.04 0 0 Z " transform="translate(148,72)" style="fill: #C17DE2;"/><path d="M0 0 C-1.17578125 1.55078125 -1.17578125 1.55078125 -3 3 C-5.48046875 2.85546875 -5.48046875 2.85546875 -8.1875 2.1875 C-9.53908203 1.86845703 -9.53908203 1.86845703 -10.91796875 1.54296875 C-11.60503906 1.36378906 -12.29210937 1.18460938 -13 1 C-9.01392918 -0.32869027 -3.88945394 -1.94472697 0 0 Z " transform="translate(173,207)" style="fill: #D5D6D5;"/><path d="M0 0 C0.66 0.66 1.32 1.32 2 2 C1.34 2 0.68 2 0 2 C0 3.32 0 4.64 0 6 C1.98 5.67 3.96 5.34 6 5 C4.35 6.32 2.7 7.64 1 9 C-1.3773161 6.6226839 -1.67028521 5.29714793 -2 2 C-1.34 1.34 -0.68 0.68 0 0 Z " transform="translate(209,169)" style="fill: #AC4EAE;"/><path d="M0 0 C0.99 0.33 1.98 0.66 3 1 C2.34 1.556875 1.68 2.11375 1 2.6875 C-1.25492211 4.84062308 -1.25492211 4.84062308 -1.25 7.75 C-1.1675 8.4925 -1.085 9.235 -1 10 C-1.66 9.67 -2.32 9.34 -3 9 C-3.36923077 3.46153846 -3.36923077 3.46153846 -1.5 1.125 C-1.005 0.75375 -0.51 0.3825 0 0 Z " transform="translate(12,69)" style="fill: #EC7777;"/><path d="M0 0 C3.125 -0.1875 3.125 -0.1875 6 0 C5.38125 0.268125 4.7625 0.53625 4.125 0.8125 C1.7004767 1.95556848 1.7004767 1.95556848 0 5 C-0.39013716 6.9896995 -0.73202649 8.99019869 -1 11 C-1.33 11 -1.66 11 -2 11 C-2.25 3.375 -2.25 3.375 0 0 Z " transform="translate(315,60)" style="fill: #DB778B;"/><path d="M0 0 C1.24546405 2.49092811 0.7767578 3.41080733 0 6 C-3.16115776 4.63016497 -3.9927092 4.0109362 -6 1 C-4.02 0.67 -2.04 0.34 0 0 Z " transform="translate(313,61)" style="fill: #DDCFD5;"/><path d="M0 0 C-0.33 0.66 -0.66 1.32 -1 2 C-4.0625 2.625 -4.0625 2.625 -7 3 C-7 2.01 -7 1.02 -7 0 C-4.3333581 -1.33332095 -2.83319697 -0.67102033 0 0 Z " transform="translate(161,186)" style="fill: #BF7EA5;"/><path d="M0 0 C0 1.65 0 3.3 0 5 C-1.32 5.33 -2.64 5.66 -4 6 C-2.92307692 0 -2.92307692 0 0 0 Z " transform="translate(160,101)" style="fill: #935DFC;"/><path d="M0 0 C0.33 0 0.66 0 1 0 C1.33 3.96 1.66 7.92 2 12 C0.02 12.99 0.02 12.99 -2 14 C-1.34 9.38 -0.68 4.76 0 0 Z " transform="translate(325,69)" style="fill: #C4A8A8;"/><path d="M0 0 C2.64 0 5.28 0 8 0 C8 1.65 8 3.3 8 5 C7.34 5 6.68 5 6 5 C6 4.01 6 3.02 6 2 C3.03 1.505 3.03 1.505 0 1 C0 0.67 0 0.34 0 0 Z " transform="translate(56,158)" style="fill: #DDBDBC;"/><path d="M0 0 C0 0.33 0 0.66 0 1 C-2.01822917 1.45572917 -4.03645833 1.91145833 -6.0546875 2.3671875 C-8.20719964 2.90474428 -8.20719964 2.90474428 -10 5 C-10.66 4.67 -11.32 4.34 -12 4 C-12 3.34 -12 2.68 -12 2 C-7.8794254 0.00214565 -4.54805635 -0.17835515 0 0 Z " transform="translate(43,71)" style="fill: #AD87B0;"/><path d="M0 0 C0.6875 1.8125 0.6875 1.8125 1 4 C-0.3125 5.75 -0.3125 5.75 -2 7 C-2.66 7 -3.32 7 -4 7 C-4 6.01 -4 5.02 -4 4 C-3.34 4 -2.68 4 -2 4 C-1.34 2.68 -0.68 1.36 0 0 Z " transform="translate(151,32)" style="fill: #B565DD;"/><path d="M0 0 C2 3 2 3 1.875 5 C1 7 1 7 -3 10 C-2.01 6.7 -1.02 3.4 0 0 Z " transform="translate(232,184)" style="fill: #D6C4C4;"/><path d="M0 0 C1.32 1.65 2.64 3.3 4 5 C3.01 5 2.02 5 1 5 C0.67 5.99 0.34 6.98 0 8 C-0.66 7.67 -1.32 7.34 -2 7 C-2 5.02 -2 3.04 -2 1 C-1.34 0.67 -0.68 0.34 0 0 Z " transform="translate(164,142)" style="fill: #EBDBFB;"/><path d="M0 0 C0.33 0 0.66 0 1 0 C1.125 2.375 1.125 2.375 1 5 C0.34 5.66 -0.32 6.32 -1 7 C-1.99 6.67 -2.98 6.34 -4 6 C-2.69593116 3.98079663 -1.36176581 1.98075027 0 0 Z " transform="translate(56,77)" style="fill: #CACBCA;"/><path d="M0 0 C-0.66 1.32 -1.32 2.64 -2 4 C-2.99 4 -3.98 4 -5 4 C-5 2.68 -5 1.36 -5 0 C-3 -1 -3 -1 0 0 Z " transform="translate(214,171)" style="fill: #BCAABF;"/></svg>