<?xml version="1.0" standalone="no"?>
<!DOCTYPE svg PUBLIC "-//W3C//DTD SVG 20010904//EN"
 "http://www.w3.org/TR/2001/REC-SVG-20010904/DTD/svg10.dtd">
<svg version="1.0" xmlns="http://www.w3.org/2000/svg"
 width="452.000000pt" height="329.000000pt" viewBox="0 0 452.000000 329.000000"
 preserveAspectRatio="xMidYMid meet">
<metadata>
Created by potrace 1.16, written by Peter Selinger 2001-2019
</metadata>
<g transform="translate(0.000000,329.000000) scale(0.100000,-0.100000)"
fill="#000000" stroke="none">
<path d="M1563 2099 c-22 -27 -26 -69 -9 -113 l16 -43 -43 -79 c-121 -219
-135 -343 -45 -390 52 -27 178 -16 253 21 33 17 61 38 63 47 3 13 -8 11 -55
-15 -51 -28 -69 -32 -153 -35 -84 -4 -98 -2 -120 16 -21 17 -25 28 -24 74 1
62 43 175 110 290 l44 77 -20 33 c-25 41 -25 63 -1 87 18 18 23 19 68 5 36
-11 74 -13 155 -8 l107 7 35 -35 c19 -19 38 -48 42 -64 4 -16 18 -45 31 -64
12 -20 26 -56 29 -80 7 -55 -11 -130 -31 -130 -8 0 -15 4 -15 10 0 5 -12 16
-28 24 -23 12 -32 12 -59 1 -62 -26 -90 -119 -49 -164 18 -20 18 -22 0 -73
-10 -29 -21 -57 -25 -63 -4 -5 -66 -30 -137 -55 l-129 -44 -33 37 c-17 20 -35
37 -39 37 -4 0 -24 -15 -44 -32 l-37 -33 21 -68 c12 -37 19 -71 16 -74 -15
-14 -36 10 -52 56 -9 28 -21 51 -27 51 -12 0 -146 -86 -177 -114 -12 -11 -38
-51 -57 -89 l-34 -67 86 -123 c104 -147 102 -144 110 -124 4 11 -20 53 -71
124 -43 59 -79 112 -82 118 -2 6 7 36 21 66 20 47 35 63 99 107 41 29 82 52
90 52 8 0 21 -23 32 -60 16 -51 20 -58 36 -50 30 17 44 11 56 -21 8 -19 17
-29 25 -26 55 22 51 32 44 -104 -6 -96 -3 -144 9 -214 10 -49 18 -96 19 -103
0 -7 -25 -29 -56 -49 -66 -41 -65 -41 -122 41 l-37 54 16 64 c9 34 32 104 51
154 37 101 45 152 15 94 -23 -42 -86 -230 -96 -283 -7 -34 -3 -44 35 -100 74
-106 62 -101 138 -55 97 59 93 53 76 100 -27 78 -38 217 -24 314 21 152 24
144 -42 128 -23 -5 -28 -2 -34 20 -5 20 -2 31 12 41 33 25 57 16 115 -41 l56
-55 88 95 c49 53 92 96 97 96 4 0 41 -27 81 -61 39 -33 108 -78 153 -99 72
-35 81 -43 92 -76 6 -22 8 -41 2 -44 -4 -3 -128 -72 -274 -155 -232 -131 -296
-175 -255 -175 6 0 136 70 290 157 189 106 279 161 278 172 0 9 -8 38 -18 66
-16 44 -22 51 -67 70 -82 33 -146 75 -214 141 l-66 63 -84 -92 c-46 -51 -89
-95 -96 -100 -8 -4 -34 13 -73 49 l-61 56 -35 -22 -35 -22 -21 47 c-25 57 -22
77 14 89 25 9 31 7 53 -22 14 -18 31 -32 37 -32 7 0 72 22 146 48 l135 48 15
45 c21 58 52 109 67 109 21 0 73 60 101 113 14 29 27 76 31 109 4 50 1 66 -25
120 -17 35 -40 84 -52 110 -36 76 -66 89 -202 86 -63 -2 -137 1 -164 6 -39 6
-53 5 -62 -5z"/>
<path d="M345 1533 c-43 -10 -132 -45 -173 -69 -55 -33 -77 -65 -62 -93 12
-24 16 -25 59 -10 32 11 35 10 76 -34 78 -81 192 -101 242 -42 39 45 26 182
-23 236 -17 19 -68 24 -119 12z"/>
<path d="M3146 1514 c-9 -23 -7 -69 4 -98 12 -33 3 -56 -21 -56 -16 0 -19 8
-19 51 0 43 -5 55 -29 80 -36 36 -86 39 -125 8 -80 -63 35 -232 158 -232 79 0
126 55 126 147 0 49 -15 96 -33 108 -21 13 -55 9 -61 -8z"/>
<path d="M520 1081 c-82 -26 -137 -58 -192 -109 -41 -38 -48 -51 -46 -76 4
-44 26 -43 78 4 25 23 91 63 147 91 103 49 133 75 111 97 -16 16 -32 14 -98
-7z"/>
<path d="M2812 1057 c-45 -48 -38 -168 11 -183 17 -5 32 5 78 56 45 51 60 61
77 56 32 -10 38 -44 13 -77 -25 -34 -27 -55 -4 -63 23 -9 61 30 69 70 4 22 0
45 -12 71 -33 68 -102 70 -161 5 -37 -40 -44 -33 -13 13 24 36 24 39 4 59 -21
22 -37 20 -62 -7z"/>
<path d="M658 800 c-10 -6 -18 -22 -18 -35 0 -19 7 -26 28 -31 48 -10 54 -14
50 -31 -5 -20 -5 -20 -68 3 -72 27 -130 2 -130 -56 0 -43 37 -80 86 -87 35 -4
42 -9 50 -37 7 -24 15 -31 33 -31 21 0 30 13 67 95 51 111 55 156 20 189 -27
26 -92 37 -118 21z"/>
<path d="M2497 710 c-23 -14 -47 -63 -47 -95 0 -14 9 -34 21 -46 25 -25 45
-13 57 34 8 33 20 41 39 29 9 -6 5 -21 -14 -60 -19 -39 -24 -60 -19 -86 7 -36
37 -66 67 -66 29 0 65 37 78 79 8 29 17 41 31 41 35 0 50 12 50 41 0 19 -8 33
-22 42 -13 7 -51 31 -86 51 -67 40 -125 54 -155 36z"/>
<path d="M2095 525 c-60 -21 -95 -65 -95 -120 0 -24 4 -55 9 -68 8 -20 6 -29
-10 -43 -10 -9 -19 -26 -19 -37 0 -16 5 -18 34 -13 30 6 35 3 61 -35 41 -58
70 -71 120 -54 65 22 130 110 100 135 -9 8 -31 1 -81 -25 -37 -19 -71 -32 -75
-28 -4 5 -11 20 -14 35 -6 23 -2 30 33 53 48 31 55 46 37 72 -14 19 -15 18
-87 -12 -14 -6 -18 -2 -18 17 0 19 9 29 40 43 111 50 80 122 -35 80z"/>
<path d="M1052 493 c-49 -17 -97 -61 -106 -98 -6 -25 6 -90 21 -110 5 -6 23
-23 41 -38 60 -49 188 -30 180 26 -3 19 -12 23 -63 30 -66 9 -95 28 -95 62 0
35 20 45 91 45 52 0 72 4 93 21 31 24 34 54 7 69 -28 14 -119 11 -169 -7z"/>
<path d="M1528 376 c-129 -99 -88 -287 62 -285 58 0 112 27 124 61 19 54 -33
74 -109 42 -41 -17 -65 -13 -65 11 0 10 10 15 29 15 94 0 146 72 106 149 -27
53 -83 56 -147 7z"/>
</g>
</svg>
